{
  "source": "C:\\Users\\Peter\\Desktop\\stuff\\MIUN\\quantitative_research\\video_compression\\videos\\BVI-HD\\BVI-HD_CDVL_videos\\ORIG\\DiverFishAndRock_1920x1080_30fps.mp4",
  "output": "C:\\Users\\Peter\\Desktop\\stuff\\MIUN\\quantitative_research\\video_compression\\compressed_videos\\BVI-HD\\hevc\\8\\DiverFishAndRock_1920x1080_30fps_hevc.mp4",
  "codec": "hevc",
  "ok": "Input #0, mov,mp4,m4a,3gp,3g2,mj2, from 'C:\\Users\\Peter\\Desktop\\stuff\\MIUN\\quantitative_research\\video_compression\\videos\\BVI-HD\\BVI-HD_CDVL_videos\\ORIG\\DiverFishAndRock_1920x1080_30fps.mp4':\n  Metadata:\n    major_brand     : isom\n    minor_version   : 512\n    compatible_brands: isomiso2avc1mp41\n    encoder         : Lavf54.28.101\n  Duration: 00:00:05.00, start: 0.000000, bitrate: 228854 kb/s\n  Stream #0:0[0x1](und): Video: h264 (High 4:4:4 Predictive) (avc1 / 0x31637661), yuv420p(progressive), 1920x1080, 228851 kb/s, 30 fps, 30 tbr, 30 tbn (default)\n    Metadata:\n      handler_name    : VideoHandler\n      vendor_id       : [0][0][0][0]\n[out#0/mp4 @ 0000028329eca980] Codec AVOption b:a (set bitrate (in bits/s)) has not been used for any stream. The most likely reason is either wrong type (e.g. a video option with no video streams) or that it is a private option of some decoder which was not actually used for any stream.\nStream mapping:\n  Stream #0:0 -> #0:0 (h264 (native) -> hevc (libx265))\nPress [q] to stop, [?] for help\n[libx265 @ 000002832a84b7c0] Unknown option: \"aq-mode.\nx265 [info]: HEVC encoder version 4.1+190-8f11c33ac\nx265 [info]: build info [Windows][GCC 15.1.0][64 bit] 10bit\nx265 [info]: using cpu capabilities: MMX2 SSE2Fast LZCNT SSSE3 SSE4.2 AVX FMA3 BMI2 AVX2\nx265 [info]: Main 10 profile, Level-4 (Main tier)\nx265 [info]: Thread pool created using 12 threads\nx265 [info]: Slices                              : 1\nx265 [info]: frame threads / pool features       : 3 / wpp(17 rows)\nx265 [info]: Coding QT: max CU size, min CU size : 64 / 8\nx265 [info]: Residual QT: max TU size, max depth : 32 / 1 inter / 1 intra\nx265 [info]: ME / range / subpel / merge         : star / 57 / 3 / 3\nx265 [info]: Keyframe min / max / scenecut / bias  : 25 / 250 / 40 / 5.00 \nx265 [info]: Lookahead / bframes / badapt        : 25 / 4 / 2\nx265 [info]: b-pyramid / weightp / weightb       : 1 / 1 / 0\nx265 [info]: References / ref-limit  cu / depth  : 4 / on / on\nx265 [info]: AQ: mode / str / qg-size / cu-tree  : 2 / 1.0 / 32 / 1\nx265 [info]: Rate Control / qCompress            : ABR-8000 kbps / 0.60\nx265 [info]: VBV/HRD buffer / max-rate / init    : 8000 / 8000 / 0.750\nx265 [info]: tools: rect limit-modes rd=4 psy-rd=2.00 rdoq=2 psy-rdoq=1.00\nx265 [info]: tools: rskip mode=1 signhide tmvp strong-intra-smoothing lslices=4\nx265 [info]: tools: deblock sao dhdr10-info\nOutput #0, mp4, to 'C:\\Users\\Peter\\Desktop\\stuff\\MIUN\\quantitative_research\\video_compression\\compressed_videos\\BVI-HD\\hevc\\8\\DiverFishAndRock_1920x1080_30fps_hevc.mp4':\n  Metadata:\n    major_brand     : isom\n    minor_version   : 512\n    compatible_brands: isomiso2avc1mp41\n    encoder         : Lavf62.3.100\n  Stream #0:0(und): Video: hevc (hev1 / 0x31766568), yuv420p10le(tv, progressive), 1920x1080, q=2-31, 8000 kb/s, 30 fps, 15360 tbn (default)\n    Metadata:\n      encoder         : Lavc62.11.100 libx265\n      handler_name    : VideoHandler\n      vendor_id       : [0][0][0][0]\n    Side data:\n      cpb: bitrate max/min/avg: 8000000/0/8000000 buffer size: 8000000 vbv_delay: N/A\nframe=    0 fps=0.0 q=0.0 size=       0KiB time=N/A bitrate=N/A speed=N/A elapsed=0:00:00.51    \nframe=    0 fps=0.0 q=0.0 size=       0KiB time=N/A bitrate=N/A speed=N/A elapsed=0:00:01.12    \nframe=    0 fps=0.0 q=0.0 size=       0KiB time=N/A bitrate=N/A speed=N/A elapsed=0:00:01.65    \nframe=    0 fps=0.0 q=0.0 size=       0KiB time=N/A bitrate=N/A speed=N/A elapsed=0:00:02.18    \nframe=    0 fps=0.0 q=0.0 size=       0KiB time=N/A bitrate=N/A speed=N/A elapsed=0:00:02.76    \nframe=    0 fps=0.0 q=0.0 size=       0KiB time=N/A bitrate=N/A speed=N/A elapsed=0:00:03.31    \nframe=    0 fps=0.0 q=0.0 size=       0KiB time=N/A bitrate=N/A speed=N/A elapsed=0:00:03.85    \nframe=    0 fps=0.0 q=0.0 size=       0KiB time=N/A bitrate=N/A speed=N/A elapsed=0:00:04.39    \nframe=    0 fps=0.0 q=0.0 size=       0KiB time=N/A bitrate=N/A speed=N/A elapsed=0:00:04.92    \nframe=    0 fps=0.0 q=0.0 size=       0KiB time=N/A bitrate=N/A speed=N/A elapsed=0:00:05.44    \nframe=    0 fps=0.0 q=0.0 size=       0KiB time=N/A bitrate=N/A speed=N/A elapsed=0:00:05.95    \nframe=    0 fps=0.0 q=0.0 size=       0KiB time=N/A bitrate=N/A speed=N/A elapsed=0:00:06.48    \nframe=    0 fps=0.0 q=0.0 size=       0KiB time=N/A bitrate=N/A speed=N/A elapsed=0:00:07.00    \nframe=    0 fps=0.0 q=0.0 size=       0KiB time=N/A bitrate=N/A speed=N/A elapsed=0:00:07.51    \nframe=    0 fps=0.0 q=0.0 size=       0KiB time=N/A bitrate=N/A speed=N/A elapsed=0:00:08.05    \nframe=    0 fps=0.0 q=0.0 size=       0KiB time=N/A bitrate=N/A speed=N/A elapsed=0:00:08.56    \nframe=    0 fps=0.0 q=0.0 size=       0KiB time=N/A bitrate=N/A speed=N/A elapsed=0:00:09.10    \nframe=    0 fps=0.0 q=0.0 size=       0KiB time=N/A bitrate=N/A speed=N/A elapsed=0:00:09.63    \nframe=    1 fps=0.1 q=23.2 size=       0KiB time=-00:00:00.03 bitrate=N/A speed=N/A elapsed=0:00:10.16    \nframe=    1 fps=0.1 q=23.2 size=       0KiB time=-00:00:00.03 bitrate=N/A speed=N/A elapsed=0:00:10.68    \nframe=    1 fps=0.1 q=23.2 size=       0KiB time=-00:00:00.03 bitrate=N/A speed=N/A elapsed=0:00:11.22    \nframe=    1 fps=0.1 q=23.2 size=       0KiB time=-00:00:00.03 bitrate=N/A speed=N/A elapsed=0:00:11.77    \nframe=    1 fps=0.1 q=23.2 size=       0KiB time=-00:00:00.03 bitrate=N/A speed=N/A elapsed=0:00:12.32    \nframe=    2 fps=0.2 q=25.7 size=       0KiB time=00:00:00.00 bitrate=N/A speed=   0x elapsed=0:00:12.88    \nframe=    2 fps=0.1 q=25.7 size=       0KiB time=00:00:00.00 bitrate=N/A speed=   0x elapsed=0:00:13.41    \nframe=    2 fps=0.1 q=25.7 size=       0KiB time=00:00:00.00 bitrate=N/A speed=   0x elapsed=0:00:13.94    \nframe=    2 fps=0.1 q=25.7 size=       0KiB time=00:00:00.00 bitrate=N/A speed=   0x elapsed=0:00:14.45    \nframe=    3 fps=0.2 q=28.5 size=       0KiB time=00:00:00.03 bitrate=  10.6kbits/s speed=0.00223x elapsed=0:00:14.97    \nframe=    3 fps=0.2 q=28.5 size=       0KiB time=00:00:00.03 bitrate=  10.6kbits/s speed=0.00215x elapsed=0:00:15.51    \nframe=    3 fps=0.2 q=28.5 size=       0KiB time=00:00:00.03 bitrate=  10.6kbits/s speed=0.00208x elapsed=0:00:16.04    \nframe=    3 fps=0.2 q=28.5 size=       0KiB time=00:00:00.03 bitrate=  10.6kbits/s speed=0.00201x elapsed=0:00:16.57    \nframe=    3 fps=0.2 q=28.5 size=       0KiB time=00:00:00.03 bitrate=  10.6kbits/s speed=0.00195x elapsed=0:00:17.10    \nframe=    3 fps=0.2 q=28.5 size=       0KiB time=00:00:00.03 bitrate=  10.6kbits/s speed=0.00189x elapsed=0:00:17.63    \nframe=    4 fps=0.2 q=30.5 size=       0KiB time=00:00:00.06 bitrate=   5.3kbits/s speed=0.00367x elapsed=0:00:18.16    \nframe=    4 fps=0.2 q=30.5 size=       0KiB time=00:00:00.06 bitrate=   5.3kbits/s speed=0.00356x elapsed=0:00:18.71    \nframe=    4 fps=0.2 q=30.5 size=       0KiB time=00:00:00.06 bitrate=   5.3kbits/s speed=0.00346x elapsed=0:00:19.25    \nframe=    4 fps=0.2 q=30.5 size=       0KiB time=00:00:00.06 bitrate=   5.3kbits/s speed=0.00336x elapsed=0:00:19.86    \nframe=    4 fps=0.2 q=30.5 size=       0KiB time=00:00:00.06 bitrate=   5.3kbits/s speed=0.00326x elapsed=0:00:20.43    \nframe=    4 fps=0.2 q=30.5 size=       0KiB time=00:00:00.06 bitrate=   5.3kbits/s speed=0.00317x elapsed=0:00:21.02    \nframe=    4 fps=0.2 q=30.5 size=       0KiB time=00:00:00.06 bitrate=   5.3kbits/s speed=0.00309x elapsed=0:00:21.54    \nframe=    5 fps=0.2 q=28.7 size=       0KiB time=00:00:00.10 bitrate=   3.5kbits/s speed=0.00453x elapsed=0:00:22.08    \nframe=    5 fps=0.2 q=28.7 size=       0KiB time=00:00:00.10 bitrate=   3.5kbits/s speed=0.00443x elapsed=0:00:22.59    \nframe=    5 fps=0.2 q=28.7 size=       0KiB time=00:00:00.10 bitrate=   3.5kbits/s speed=0.00433x elapsed=0:00:23.12    \nframe=    5 fps=0.2 q=28.7 size=       0KiB time=00:00:00.10 bitrate=   3.5kbits/s speed=0.00423x elapsed=0:00:23.65    \nframe=    5 fps=0.2 q=28.7 size=       0KiB time=00:00:00.10 bitrate=   3.5kbits/s speed=0.00414x elapsed=0:00:24.17    \nframe=    5 fps=0.2 q=28.7 size=       0KiB time=00:00:00.10 bitrate=   3.5kbits/s speed=0.00405x elapsed=0:00:24.71    \nframe=    5 fps=0.2 q=28.7 size=       0KiB time=00:00:00.10 bitrate=   3.5kbits/s speed=0.00395x elapsed=0:00:25.29    \nframe=    5 fps=0.2 q=28.7 size=       0KiB time=00:00:00.10 bitrate=   3.5kbits/s speed=0.00386x elapsed=0:00:25.88    \nframe=    6 fps=0.2 q=23.8 size=       0KiB time=00:00:00.13 bitrate=   2.6kbits/s speed=0.00504x elapsed=0:00:26.43    \nframe=    6 fps=0.2 q=23.8 size=       0KiB time=00:00:00.13 bitrate=   2.6kbits/s speed=0.00494x elapsed=0:00:26.96    \nframe=    6 fps=0.2 q=23.8 size=       0KiB time=00:00:00.13 bitrate=   2.6kbits/s speed=0.00484x elapsed=0:00:27.54    \nframe=    6 fps=0.2 q=23.8 size=       0KiB time=00:00:00.13 bitrate=   2.6kbits/s speed=0.00474x elapsed=0:00:28.11    \nframe=    6 fps=0.2 q=23.8 size=       0KiB time=00:00:00.13 bitrate=   2.6kbits/s speed=0.00466x elapsed=0:00:28.63    \nframe=    7 fps=0.2 q=26.7 size=       0KiB time=00:00:00.16 bitrate=   2.1kbits/s speed=0.0057x elapsed=0:00:29.25    \nframe=    7 fps=0.2 q=26.7 size=       0KiB time=00:00:00.16 bitrate=   2.1kbits/s speed=0.00559x elapsed=0:00:29.80    \nframe=    7 fps=0.2 q=26.7 size=       0KiB time=00:00:00.16 bitrate=   2.1kbits/s speed=0.00549x elapsed=0:00:30.37    \nframe=    7 fps=0.2 q=26.7 size=       0KiB time=00:00:00.16 bitrate=   2.1kbits/s speed=0.00539x elapsed=0:00:30.91    \nframe=    7 fps=0.2 q=26.7 size=       0KiB time=00:00:00.16 bitrate=   2.1kbits/s speed=0.0053x elapsed=0:00:31.45    \nframe=    7 fps=0.2 q=26.7 size=       0KiB time=00:00:00.16 bitrate=   2.1kbits/s speed=0.00521x elapsed=0:00:31.97    \nframe=    7 fps=0.2 q=26.7 size=       0KiB time=00:00:00.16 bitrate=   2.1kbits/s speed=0.00513x elapsed=0:00:32.50    \nframe=    7 fps=0.2 q=26.7 size=       0KiB time=00:00:00.16 bitrate=   2.1kbits/s speed=0.00505x elapsed=0:00:33.03    \nframe=    7 fps=0.2 q=26.7 size=       0KiB time=00:00:00.16 bitrate=   2.1kbits/s speed=0.00496x elapsed=0:00:33.57    \nframe=    7 fps=0.2 q=26.7 size=       0KiB time=00:00:00.16 bitrate=   2.1kbits/s speed=0.00489x elapsed=0:00:34.09    \nframe=    8 fps=0.2 q=27.4 size=       0KiB time=00:00:00.20 bitrate=   1.8kbits/s speed=0.00578x elapsed=0:00:34.61    \nframe=    8 fps=0.2 q=27.4 size=       0KiB time=00:00:00.20 bitrate=   1.8kbits/s speed=0.00569x elapsed=0:00:35.13    \nframe=    8 fps=0.2 q=27.4 size=       0KiB time=00:00:00.20 bitrate=   1.8kbits/s speed=0.00561x elapsed=0:00:35.65    \nframe=    9 fps=0.2 q=26.7 size=     256KiB time=00:00:00.23 bitrate=8989.3kbits/s speed=0.00645x elapsed=0:00:36.19    \nframe=    9 fps=0.2 q=26.7 size=     256KiB time=00:00:00.23 bitrate=8989.3kbits/s speed=0.00636x elapsed=0:00:36.71    \nframe=    9 fps=0.2 q=26.7 size=     256KiB time=00:00:00.23 bitrate=8989.3kbits/s speed=0.00627x elapsed=0:00:37.21    \nframe=    9 fps=0.2 q=26.7 size=     256KiB time=00:00:00.23 bitrate=8989.3kbits/s speed=0.00618x elapsed=0:00:37.73    \nframe=    9 fps=0.2 q=26.7 size=     256KiB time=00:00:00.23 bitrate=8989.3kbits/s speed=0.0061x elapsed=0:00:38.25    \nframe=   10 fps=0.3 q=22.7 size=     256KiB time=00:00:00.26 bitrate=7865.6kbits/s speed=0.00688x elapsed=0:00:38.77    \nframe=   10 fps=0.3 q=22.7 size=     256KiB time=00:00:00.26 bitrate=7865.6kbits/s speed=0.00678x elapsed=0:00:39.31    \nframe=   10 fps=0.3 q=22.7 size=     256KiB time=00:00:00.26 bitrate=7865.6kbits/s speed=0.00669x elapsed=0:00:39.83    \nframe=   11 fps=0.3 q=26.4 size=     256KiB time=00:00:00.30 bitrate=6991.7kbits/s speed=0.00743x elapsed=0:00:40.35    \nframe=   11 fps=0.3 q=26.4 size=     256KiB time=00:00:00.30 bitrate=6991.7kbits/s speed=0.00734x elapsed=0:00:40.88    \nframe=   11 fps=0.3 q=26.4 size=     256KiB time=00:00:00.30 bitrate=6991.7kbits/s speed=0.00724x elapsed=0:00:41.41    \nframe=   12 fps=0.3 q=27.3 size=     256KiB time=00:00:00.33 bitrate=6292.5kbits/s speed=0.00795x elapsed=0:00:41.92    \nframe=   12 fps=0.3 q=27.3 size=     256KiB time=00:00:00.33 bitrate=6292.5kbits/s speed=0.00785x elapsed=0:00:42.44    \nframe=   12 fps=0.3 q=27.3 size=     256KiB time=00:00:00.33 bitrate=6292.5kbits/s speed=0.00776x elapsed=0:00:42.96    \nframe=   12 fps=0.3 q=27.3 size=     256KiB time=00:00:00.33 bitrate=6292.5kbits/s speed=0.00766x elapsed=0:00:43.50    \nframe=   12 fps=0.3 q=27.3 size=     256KiB time=00:00:00.33 bitrate=6292.5kbits/s speed=0.00756x elapsed=0:00:44.09    \nframe=   13 fps=0.3 q=27.4 size=     256KiB time=00:00:00.36 bitrate=5720.5kbits/s speed=0.00822x elapsed=0:00:44.63    \nframe=   13 fps=0.3 q=27.4 size=     256KiB time=00:00:00.36 bitrate=5720.5kbits/s speed=0.00812x elapsed=0:00:45.17    \nframe=   13 fps=0.3 q=27.4 size=     256KiB time=00:00:00.36 bitrate=5720.5kbits/s speed=0.00802x elapsed=0:00:45.70    \nframe=   13 fps=0.3 q=27.4 size=     256KiB time=00:00:00.36 bitrate=5720.5kbits/s speed=0.00793x elapsed=0:00:46.26    \nframe=   13 fps=0.3 q=27.4 size=     256KiB time=00:00:00.36 bitrate=5720.5kbits/s speed=0.00784x elapsed=0:00:46.79    \nframe=   14 fps=0.3 q=26.9 size=     256KiB time=00:00:00.40 bitrate=5243.8kbits/s speed=0.00846x elapsed=0:00:47.30    \nframe=   14 fps=0.3 q=26.9 size=     256KiB time=00:00:00.40 bitrate=5243.8kbits/s speed=0.00836x elapsed=0:00:47.82    \nframe=   14 fps=0.3 q=26.9 size=     256KiB time=00:00:00.40 bitrate=5243.8kbits/s speed=0.00827x elapsed=0:00:48.34    \nframe=   14 fps=0.3 q=26.9 size=     256KiB time=00:00:00.40 bitrate=5243.8kbits/s speed=0.00819x elapsed=0:00:48.86    \nframe=   15 fps=0.3 q=22.2 size=     256KiB time=00:00:00.43 bitrate=4840.4kbits/s speed=0.00877x elapsed=0:00:49.39    \nframe=   15 fps=0.3 q=22.2 size=     256KiB time=00:00:00.43 bitrate=4840.4kbits/s speed=0.00868x elapsed=0:00:49.90    \nframe=   15 fps=0.3 q=22.2 size=     256KiB time=00:00:00.43 bitrate=4840.4kbits/s speed=0.00859x elapsed=0:00:50.41    \nframe=   16 fps=0.3 q=25.0 size=     256KiB time=00:00:00.46 bitrate=4494.6kbits/s speed=0.00916x elapsed=0:00:50.93    \nframe=   16 fps=0.3 q=25.0 size=     256KiB time=00:00:00.46 bitrate=4494.6kbits/s speed=0.00907x elapsed=0:00:51.45    \nframe=   16 fps=0.3 q=25.0 size=     256KiB time=00:00:00.46 bitrate=4494.6kbits/s speed=0.00898x elapsed=0:00:51.96    \nframe=   16 fps=0.3 q=25.0 size=     256KiB time=00:00:00.46 bitrate=4494.6kbits/s speed=0.00889x elapsed=0:00:52.48    \nframe=   16 fps=0.3 q=25.0 size=     256KiB time=00:00:00.46 bitrate=4494.6kbits/s speed=0.0088x elapsed=0:00:53.00    \nframe=   16 fps=0.3 q=25.0 size=     256KiB time=00:00:00.46 bitrate=4494.6kbits/s speed=0.00872x elapsed=0:00:53.53    \nframe=   17 fps=0.3 q=27.1 size=     512KiB time=00:00:00.50 bitrate=8389.3kbits/s speed=0.00925x elapsed=0:00:54.05    \nframe=   17 fps=0.3 q=27.1 size=     512KiB time=00:00:00.50 bitrate=8389.3kbits/s speed=0.00916x elapsed=0:00:54.56    \nframe=   17 fps=0.3 q=27.1 size=     512KiB time=00:00:00.50 bitrate=8389.3kbits/s speed=0.00908x elapsed=0:00:55.08    \nframe=   18 fps=0.3 q=27.2 size=     512KiB time=00:00:00.53 bitrate=7865.0kbits/s speed=0.00959x elapsed=0:00:55.60    \nframe=   18 fps=0.3 q=27.2 size=     512KiB time=00:00:00.53 bitrate=7865.0kbits/s speed=0.0095x elapsed=0:00:56.15    \nframe=   18 fps=0.3 q=27.2 size=     512KiB time=00:00:00.53 bitrate=7865.0kbits/s speed=0.00941x elapsed=0:00:56.69    \nframe=   19 fps=0.3 q=22.5 size=     512KiB time=00:00:00.56 bitrate=7402.3kbits/s speed=0.0099x elapsed=0:00:57.22    \nframe=   19 fps=0.3 q=22.5 size=     512KiB time=00:00:00.56 bitrate=7402.3kbits/s speed=0.00981x elapsed=0:00:57.74    \nframe=   20 fps=0.3 q=25.0 size=     512KiB time=00:00:00.60 bitrate=6991.1kbits/s speed=0.0103x elapsed=0:00:58.25    \nframe=   20 fps=0.3 q=25.0 size=     512KiB time=00:00:00.60 bitrate=6991.1kbits/s speed=0.0102x elapsed=0:00:58.76    \nframe=   20 fps=0.3 q=25.0 size=     512KiB time=00:00:00.60 bitrate=6991.1kbits/s speed=0.0101x elapsed=0:00:59.28    \nframe=   20 fps=0.3 q=25.0 size=     512KiB time=00:00:00.60 bitrate=6991.1kbits/s speed=0.01x elapsed=0:00:59.79    \nframe=   20 fps=0.3 q=25.0 size=     512KiB time=00:00:00.60 bitrate=6991.1kbits/s speed=0.00995x elapsed=0:01:00.32    \nframe=   21 fps=0.3 q=27.2 size=     512KiB time=00:00:00.63 bitrate=6623.1kbits/s speed=0.0104x elapsed=0:01:00.82    \nframe=   21 fps=0.3 q=27.2 size=     512KiB time=00:00:00.63 bitrate=6623.1kbits/s speed=0.0103x elapsed=0:01:01.35    \nframe=   21 fps=0.3 q=27.2 size=     512KiB time=00:00:00.63 bitrate=6623.1kbits/s speed=0.0102x elapsed=0:01:01.91    \nframe=   21 fps=0.3 q=27.2 size=     512KiB time=00:00:00.63 bitrate=6623.1kbits/s speed=0.0101x elapsed=0:01:02.51    \nframe=   21 fps=0.3 q=27.2 size=     512KiB time=00:00:00.63 bitrate=6623.1kbits/s speed=0.01x elapsed=0:01:03.07    \nframe=   21 fps=0.3 q=27.2 size=     512KiB time=00:00:00.63 bitrate=6623.1kbits/s speed=0.00996x elapsed=0:01:03.59    \nframe=   21 fps=0.3 q=27.2 size=     512KiB time=00:00:00.63 bitrate=6623.1kbits/s speed=0.00986x elapsed=0:01:04.20    \nframe=   21 fps=0.3 q=27.2 size=     512KiB time=00:00:00.63 bitrate=6623.1kbits/s speed=0.00977x elapsed=0:01:04.80    \nframe=   21 fps=0.3 q=27.2 size=     512KiB time=00:00:00.63 bitrate=6623.1kbits/s speed=0.00969x elapsed=0:01:05.37    \nframe=   21 fps=0.3 q=27.2 size=     512KiB time=00:00:00.63 bitrate=6623.1kbits/s speed=0.00961x elapsed=0:01:05.91    \nframe=   21 fps=0.3 q=27.2 size=     512KiB time=00:00:00.63 bitrate=6623.1kbits/s speed=0.00953x elapsed=0:01:06.43    \nframe=   22 fps=0.3 q=27.1 size=     512KiB time=00:00:00.66 bitrate=6292.0kbits/s speed=0.00996x elapsed=0:01:06.96    \nframe=   22 fps=0.3 q=27.1 size=     512KiB time=00:00:00.66 bitrate=6292.0kbits/s speed=0.00988x elapsed=0:01:07.49    \nframe=   22 fps=0.3 q=27.1 size=     512KiB time=00:00:00.66 bitrate=6292.0kbits/s speed=0.0098x elapsed=0:01:08.05    \nframe=   22 fps=0.3 q=27.1 size=     512KiB time=00:00:00.66 bitrate=6292.0kbits/s speed=0.00972x elapsed=0:01:08.59    \nframe=   22 fps=0.3 q=27.1 size=     512KiB time=00:00:00.66 bitrate=6292.0kbits/s speed=0.00964x elapsed=0:01:09.12    \nframe=   22 fps=0.3 q=27.1 size=     512KiB time=00:00:00.66 bitrate=6292.0kbits/s speed=0.00957x elapsed=0:01:09.63    \nframe=   22 fps=0.3 q=27.1 size=     512KiB time=00:00:00.66 bitrate=6292.0kbits/s speed=0.0095x elapsed=0:01:10.15    \nframe=   23 fps=0.3 q=22.1 size=     512KiB time=00:00:00.70 bitrate=5992.4kbits/s speed=0.0099x elapsed=0:01:10.68    \nframe=   23 fps=0.3 q=22.1 size=     512KiB time=00:00:00.70 bitrate=5992.4kbits/s speed=0.00983x elapsed=0:01:11.20    \nframe=   24 fps=0.3 q=24.7 size=     512KiB time=00:00:00.73 bitrate=5720.0kbits/s speed=0.0102x elapsed=0:01:11.72    \nframe=   24 fps=0.3 q=24.7 size=     512KiB time=00:00:00.73 bitrate=5720.0kbits/s speed=0.0102x elapsed=0:01:12.23    \nframe=   24 fps=0.3 q=24.7 size=     512KiB time=00:00:00.73 bitrate=5720.0kbits/s speed=0.0101x elapsed=0:01:12.74    \nframe=   24 fps=0.3 q=24.7 size=     512KiB time=00:00:00.73 bitrate=5720.0kbits/s speed=0.01x elapsed=0:01:13.27    \nframe=   25 fps=0.3 q=26.8 size=     768KiB time=00:00:00.76 bitrate=8206.7kbits/s speed=0.0104x elapsed=0:01:13.78    \nframe=   25 fps=0.3 q=26.8 size=     768KiB time=00:00:00.76 bitrate=8206.7kbits/s speed=0.0103x elapsed=0:01:14.30    \nframe=   25 fps=0.3 q=26.8 size=     768KiB time=00:00:00.76 bitrate=8206.7kbits/s speed=0.0102x elapsed=0:01:14.83    \nframe=   25 fps=0.3 q=26.8 size=     768KiB time=00:00:00.76 bitrate=8206.7kbits/s speed=0.0102x elapsed=0:01:15.34    \nframe=   25 fps=0.3 q=26.8 size=     768KiB time=00:00:00.76 bitrate=8206.7kbits/s speed=0.0101x elapsed=0:01:15.86    \nframe=   26 fps=0.3 q=26.7 size=     768KiB time=00:00:00.80 bitrate=7864.8kbits/s speed=0.0105x elapsed=0:01:16.38    \nframe=   26 fps=0.3 q=26.7 size=     768KiB time=00:00:00.80 bitrate=7864.8kbits/s speed=0.0104x elapsed=0:01:16.89    \nframe=   26 fps=0.3 q=26.7 size=     768KiB time=00:00:00.80 bitrate=7864.8kbits/s speed=0.0103x elapsed=0:01:17.41    \nframe=   26 fps=0.3 q=26.7 size=     768KiB time=00:00:00.80 bitrate=7864.8kbits/s speed=0.0103x elapsed=0:01:17.93    \nframe=   27 fps=0.3 q=26.7 size=     768KiB time=00:00:00.83 bitrate=7550.2kbits/s speed=0.0106x elapsed=0:01:18.43    \nframe=   27 fps=0.3 q=26.7 size=     768KiB time=00:00:00.83 bitrate=7550.2kbits/s speed=0.0106x elapsed=0:01:18.96    \nframe=   27 fps=0.3 q=26.7 size=     768KiB time=00:00:00.83 bitrate=7550.2kbits/s speed=0.0105x elapsed=0:01:19.50    \nframe=   27 fps=0.3 q=26.7 size=     768KiB time=00:00:00.83 bitrate=7550.2kbits/s speed=0.0104x elapsed=0:01:20.10    \nframe=   27 fps=0.3 q=26.7 size=     768KiB time=00:00:00.83 bitrate=7550.2kbits/s speed=0.0103x elapsed=0:01:20.65    \nframe=   27 fps=0.3 q=26.7 size=     768KiB time=00:00:00.83 bitrate=7550.2kbits/s speed=0.0103x elapsed=0:01:21.21    \nframe=   27 fps=0.3 q=26.7 size=     768KiB time=00:00:00.83 bitrate=7550.2kbits/s speed=0.0102x elapsed=0:01:21.77    \nframe=   28 fps=0.3 q=22.2 size=     768KiB time=00:00:00.86 bitrate=7259.8kbits/s speed=0.0105x elapsed=0:01:22.30    \nframe=   28 fps=0.3 q=22.2 size=     768KiB time=00:00:00.86 bitrate=7259.8kbits/s speed=0.0105x elapsed=0:01:22.85    \nframe=   28 fps=0.3 q=22.2 size=     768KiB time=00:00:00.86 bitrate=7259.8kbits/s speed=0.0104x elapsed=0:01:23.39    \nframe=   29 fps=0.3 q=23.5 size=     768KiB time=00:00:00.90 bitrate=6990.9kbits/s speed=0.0107x elapsed=0:01:23.93    \nframe=   29 fps=0.3 q=23.5 size=     768KiB time=00:00:00.90 bitrate=6990.9kbits/s speed=0.0107x elapsed=0:01:24.48    \nframe=   30 fps=0.4 q=27.5 size=     768KiB time=00:00:00.93 bitrate=6741.2kbits/s speed=0.011x elapsed=0:01:25.04    \nframe=   30 fps=0.4 q=27.5 size=     768KiB time=00:00:00.93 bitrate=6741.2kbits/s speed=0.0109x elapsed=0:01:25.56    \nframe=   30 fps=0.3 q=27.5 size=     768KiB time=00:00:00.93 bitrate=6741.2kbits/s speed=0.0108x elapsed=0:01:26.10    \nframe=   30 fps=0.3 q=27.5 size=     768KiB time=00:00:00.93 bitrate=6741.2kbits/s speed=0.0108x elapsed=0:01:26.67    \nframe=   30 fps=0.3 q=27.5 size=     768KiB time=00:00:00.93 bitrate=6741.2kbits/s speed=0.0107x elapsed=0:01:27.25    \nframe=   30 fps=0.3 q=27.5 size=     768KiB time=00:00:00.93 bitrate=6741.2kbits/s speed=0.0106x elapsed=0:01:27.79    \nframe=   30 fps=0.3 q=27.5 size=     768KiB time=00:00:00.93 bitrate=6741.2kbits/s speed=0.0106x elapsed=0:01:28.34    \nframe=   30 fps=0.3 q=27.5 size=     768KiB time=00:00:00.93 bitrate=6741.2kbits/s speed=0.0105x elapsed=0:01:28.87    \nframe=   30 fps=0.3 q=27.5 size=     768KiB time=00:00:00.93 bitrate=6741.2kbits/s speed=0.0104x elapsed=0:01:29.42    \nframe=   30 fps=0.3 q=27.5 size=     768KiB time=00:00:00.93 bitrate=6741.2kbits/s speed=0.0104x elapsed=0:01:29.99    \nframe=   30 fps=0.3 q=27.5 size=     768KiB time=00:00:00.93 bitrate=6741.2kbits/s speed=0.0103x elapsed=0:01:30.50    \nframe=   30 fps=0.3 q=27.5 size=     768KiB time=00:00:00.93 bitrate=6741.2kbits/s speed=0.0103x elapsed=0:01:31.01    \nframe=   30 fps=0.3 q=27.5 size=     768KiB time=00:00:00.93 bitrate=6741.2kbits/s speed=0.0102x elapsed=0:01:31.57    \nframe=   30 fps=0.3 q=27.5 size=     768KiB time=00:00:00.93 bitrate=6741.2kbits/s speed=0.0101x elapsed=0:01:32.13    \nframe=   30 fps=0.3 q=27.5 size=     768KiB time=00:00:00.93 bitrate=6741.2kbits/s speed=0.0101x elapsed=0:01:32.70    \nframe=   31 fps=0.3 q=27.5 size=     768KiB time=00:00:00.96 bitrate=6508.8kbits/s speed=0.0104x elapsed=0:01:33.25    \nframe=   31 fps=0.3 q=27.5 size=     768KiB time=00:00:00.96 bitrate=6508.8kbits/s speed=0.0103x elapsed=0:01:33.80    \nframe=   31 fps=0.3 q=27.5 size=     768KiB time=00:00:00.96 bitrate=6508.8kbits/s speed=0.0102x elapsed=0:01:34.35    \nframe=   31 fps=0.3 q=27.5 size=     768KiB time=00:00:00.96 bitrate=6508.8kbits/s speed=0.0102x elapsed=0:01:34.92    \nframe=   31 fps=0.3 q=27.5 size=     768KiB time=00:00:00.96 bitrate=6508.8kbits/s speed=0.0101x elapsed=0:01:35.43    \nframe=   31 fps=0.3 q=27.5 size=     768KiB time=00:00:00.96 bitrate=6508.8kbits/s speed=0.0101x elapsed=0:01:35.99    \nframe=   31 fps=0.3 q=27.5 size=     768KiB time=00:00:00.96 bitrate=6508.8kbits/s speed=0.01x elapsed=0:01:36.54    \nframe=   31 fps=0.3 q=27.5 size=     768KiB time=00:00:00.96 bitrate=6508.8kbits/s speed=0.00996x elapsed=0:01:37.08    \nframe=   32 fps=0.3 q=27.7 size=     768KiB time=00:00:01.00 bitrate=6291.8kbits/s speed=0.0102x elapsed=0:01:37.60    \nframe=   32 fps=0.3 q=27.7 size=     768KiB time=00:00:01.00 bitrate=6291.8kbits/s speed=0.0102x elapsed=0:01:38.14    \nframe=   32 fps=0.3 q=27.7 size=     768KiB time=00:00:01.00 bitrate=6291.8kbits/s speed=0.0101x elapsed=0:01:38.70    \nframe=   33 fps=0.3 q=22.4 size=     768KiB time=00:00:01.03 bitrate=6088.8kbits/s speed=0.0104x elapsed=0:01:39.25    \nframe=   33 fps=0.3 q=22.4 size=     768KiB time=00:00:01.03 bitrate=6088.8kbits/s speed=0.0103x elapsed=0:01:39.84    \nframe=   33 fps=0.3 q=22.4 size=     768KiB time=00:00:01.03 bitrate=6088.8kbits/s speed=0.0103x elapsed=0:01:40.44    \nframe=   33 fps=0.3 q=22.4 size=     768KiB time=00:00:01.03 bitrate=6088.8kbits/s speed=0.0102x elapsed=0:01:41.00    \nframe=   33 fps=0.3 q=22.4 size=     768KiB time=00:00:01.03 bitrate=6088.8kbits/s speed=0.0102x elapsed=0:01:41.59    \nframe=   33 fps=0.3 q=22.4 size=     768KiB time=00:00:01.03 bitrate=6088.8kbits/s speed=0.0101x elapsed=0:01:42.15    \nframe=   33 fps=0.3 q=22.4 size=     768KiB time=00:00:01.03 bitrate=6088.8kbits/s speed=0.0101x elapsed=0:01:42.67    \nframe=   33 fps=0.3 q=22.4 size=     768KiB time=00:00:01.03 bitrate=6088.8kbits/s speed=0.01x elapsed=0:01:43.19    \nframe=   33 fps=0.3 q=22.4 size=     768KiB time=00:00:01.03 bitrate=6088.8kbits/s speed=0.00996x elapsed=0:01:43.73    \nframe=   33 fps=0.3 q=22.4 size=     768KiB time=00:00:01.03 bitrate=6088.8kbits/s speed=0.00991x elapsed=0:01:44.31    \nframe=   33 fps=0.3 q=22.4 size=     768KiB time=00:00:01.03 bitrate=6088.8kbits/s speed=0.00986x elapsed=0:01:44.85    \nframe=   33 fps=0.3 q=22.4 size=     768KiB time=00:00:01.03 bitrate=6088.8kbits/s speed=0.0098x elapsed=0:01:45.40    \nframe=   34 fps=0.3 q=25.2 size=    1024KiB time=00:00:01.06 bitrate=7864.6kbits/s speed=0.0101x elapsed=0:01:45.90    \nframe=   34 fps=0.3 q=25.2 size=    1024KiB time=00:00:01.06 bitrate=7864.6kbits/s speed=0.01x elapsed=0:01:46.43    \nframe=   34 fps=0.3 q=25.2 size=    1024KiB time=00:00:01.06 bitrate=7864.6kbits/s speed=0.00997x elapsed=0:01:46.94    \nframe=   34 fps=0.3 q=25.2 size=    1024KiB time=00:00:01.06 bitrate=7864.6kbits/s speed=0.00993x elapsed=0:01:47.46    \nframe=   34 fps=0.3 q=25.2 size=    1024KiB time=00:00:01.06 bitrate=7864.6kbits/s speed=0.00988x elapsed=0:01:47.99    \nframe=   34 fps=0.3 q=25.2 size=    1024KiB time=00:00:01.06 bitrate=7864.6kbits/s speed=0.00983x elapsed=0:01:48.51    \nframe=   35 fps=0.3 q=27.8 size=    1024KiB time=00:00:01.10 bitrate=7626.3kbits/s speed=0.0101x elapsed=0:01:49.01    \nframe=   35 fps=0.3 q=27.8 size=    1024KiB time=00:00:01.10 bitrate=7626.3kbits/s speed=0.01x elapsed=0:01:49.54    \nframe=   35 fps=0.3 q=27.8 size=    1024KiB time=00:00:01.10 bitrate=7626.3kbits/s speed=0.00999x elapsed=0:01:50.06    \nframe=   35 fps=0.3 q=27.8 size=    1024KiB time=00:00:01.10 bitrate=7626.3kbits/s speed=0.00995x elapsed=0:01:50.58    \nframe=   35 fps=0.3 q=27.8 size=    1024KiB time=00:00:01.10 bitrate=7626.3kbits/s speed=0.0099x elapsed=0:01:51.12    \nframe=   35 fps=0.3 q=27.8 size=    1024KiB time=00:00:01.10 bitrate=7626.3kbits/s speed=0.00985x elapsed=0:01:51.65    \nframe=   36 fps=0.3 q=27.9 size=    1024KiB time=00:00:01.13 bitrate=7402.0kbits/s speed=0.0101x elapsed=0:01:52.18    \nframe=   36 fps=0.3 q=27.9 size=    1024KiB time=00:00:01.13 bitrate=7402.0kbits/s speed=0.0101x elapsed=0:01:52.71    \nframe=   36 fps=0.3 q=27.9 size=    1024KiB time=00:00:01.13 bitrate=7402.0kbits/s speed=0.01x elapsed=0:01:53.23    \nframe=   36 fps=0.3 q=27.9 size=    1024KiB time=00:00:01.13 bitrate=7402.0kbits/s speed=0.00996x elapsed=0:01:53.77    \nframe=   37 fps=0.3 q=22.3 size=    1024KiB time=00:00:01.16 bitrate=7190.5kbits/s speed=0.0102x elapsed=0:01:54.28    \nframe=   38 fps=0.3 q=25.2 size=    1024KiB time=00:00:01.20 bitrate=6990.8kbits/s speed=0.0105x elapsed=0:01:54.81    \nframe=   38 fps=0.3 q=25.2 size=    1024KiB time=00:00:01.20 bitrate=6990.8kbits/s speed=0.0104x elapsed=0:01:55.33    \nframe=   38 fps=0.3 q=25.2 size=    1024KiB time=00:00:01.20 bitrate=6990.8kbits/s speed=0.0104x elapsed=0:01:55.84    \nframe=   38 fps=0.3 q=25.2 size=    1024KiB time=00:00:01.20 bitrate=6990.8kbits/s speed=0.0103x elapsed=0:01:56.38    \nframe=   38 fps=0.3 q=25.2 size=    1024KiB time=00:00:01.20 bitrate=6990.8kbits/s speed=0.0103x elapsed=0:01:56.90    \nframe=   39 fps=0.3 q=27.6 size=    1024KiB time=00:00:01.23 bitrate=6801.9kbits/s speed=0.0105x elapsed=0:01:57.42    \nframe=   39 fps=0.3 q=27.6 size=    1024KiB time=00:00:01.23 bitrate=6801.9kbits/s speed=0.0105x elapsed=0:01:57.95    \nframe=   39 fps=0.3 q=27.6 size=    1024KiB time=00:00:01.23 bitrate=6801.9kbits/s speed=0.0104x elapsed=0:01:58.48    \nframe=   40 fps=0.3 q=27.3 size=    1024KiB time=00:00:01.26 bitrate=6622.9kbits/s speed=0.0106x elapsed=0:01:59.00    \nframe=   40 fps=0.3 q=27.3 size=    1024KiB time=00:00:01.26 bitrate=6622.9kbits/s speed=0.0106x elapsed=0:01:59.52    \nframe=   40 fps=0.3 q=27.3 size=    1024KiB time=00:00:01.26 bitrate=6622.9kbits/s speed=0.0106x elapsed=0:02:00.03    \nframe=   40 fps=0.3 q=27.3 size=    1024KiB time=00:00:01.26 bitrate=6622.9kbits/s speed=0.0105x elapsed=0:02:00.55    \nframe=   40 fps=0.3 q=27.3 size=    1024KiB time=00:00:01.26 bitrate=6622.9kbits/s speed=0.0105x elapsed=0:02:01.09    \nframe=   41 fps=0.3 q=22.2 size=    1024KiB time=00:00:01.30 bitrate=6453.0kbits/s speed=0.0107x elapsed=0:02:01.62    \nframe=   41 fps=0.3 q=22.2 size=    1024KiB time=00:00:01.30 bitrate=6453.0kbits/s speed=0.0106x elapsed=0:02:02.15    \nframe=   41 fps=0.3 q=22.2 size=    1024KiB time=00:00:01.30 bitrate=6453.0kbits/s speed=0.0106x elapsed=0:02:02.70    \nframe=   41 fps=0.3 q=22.2 size=    1024KiB time=00:00:01.30 bitrate=6453.0kbits/s speed=0.0105x elapsed=0:02:03.23    \nframe=   41 fps=0.3 q=22.2 size=    1024KiB time=00:00:01.30 bitrate=6453.0kbits/s speed=0.0105x elapsed=0:02:03.76    \nframe=   41 fps=0.3 q=22.2 size=    1024KiB time=00:00:01.30 bitrate=6453.0kbits/s speed=0.0105x elapsed=0:02:04.28    \nframe=   42 fps=0.3 q=24.7 size=    1280KiB time=00:00:01.33 bitrate=7864.6kbits/s speed=0.0107x elapsed=0:02:04.80    \nframe=   42 fps=0.3 q=24.7 size=    1280KiB time=00:00:01.33 bitrate=7864.6kbits/s speed=0.0106x elapsed=0:02:05.32    \nframe=   42 fps=0.3 q=24.7 size=    1280KiB time=00:00:01.33 bitrate=7864.6kbits/s speed=0.0106x elapsed=0:02:05.82    \nframe=   42 fps=0.3 q=24.7 size=    1280KiB time=00:00:01.33 bitrate=7864.6kbits/s speed=0.0106x elapsed=0:02:06.34    \nframe=   42 fps=0.3 q=24.7 size=    1280KiB time=00:00:01.33 bitrate=7864.6kbits/s speed=0.0105x elapsed=0:02:06.86    \nframe=   42 fps=0.3 q=24.7 size=    1280KiB time=00:00:01.33 bitrate=7864.6kbits/s speed=0.0105x elapsed=0:02:07.40    \nframe=   43 fps=0.3 q=27.0 size=    1280KiB time=00:00:01.36 bitrate=7672.8kbits/s speed=0.0107x elapsed=0:02:07.92    \nframe=   43 fps=0.3 q=27.0 size=    1280KiB time=00:00:01.36 bitrate=7672.8kbits/s speed=0.0106x elapsed=0:02:08.43    \nframe=   43 fps=0.3 q=27.0 size=    1280KiB time=00:00:01.36 bitrate=7672.8kbits/s speed=0.0106x elapsed=0:02:08.95    \nframe=   43 fps=0.3 q=27.0 size=    1280KiB time=00:00:01.36 bitrate=7672.8kbits/s speed=0.0106x elapsed=0:02:09.48    \nframe=   43 fps=0.3 q=27.0 size=    1280KiB time=00:00:01.36 bitrate=7672.8kbits/s speed=0.0105x elapsed=0:02:10.02    \nframe=   43 fps=0.3 q=27.0 size=    1280KiB time=00:00:01.36 bitrate=7672.8kbits/s speed=0.0105x elapsed=0:02:10.54    \nframe=   43 fps=0.3 q=27.0 size=    1280KiB time=00:00:01.36 bitrate=7672.8kbits/s speed=0.0104x elapsed=0:02:11.07    \nframe=   43 fps=0.3 q=27.0 size=    1280KiB time=00:00:01.36 bitrate=7672.8kbits/s speed=0.0104x elapsed=0:02:11.60    \nframe=   44 fps=0.3 q=26.8 size=    1280KiB time=00:00:01.40 bitrate=7490.1kbits/s speed=0.0106x elapsed=0:02:12.12    \nframe=   44 fps=0.3 q=26.8 size=    1280KiB time=00:00:01.40 bitrate=7490.1kbits/s speed=0.0106x elapsed=0:02:12.64    \nframe=   44 fps=0.3 q=26.8 size=    1280KiB time=00:00:01.40 bitrate=7490.1kbits/s speed=0.0105x elapsed=0:02:13.16    \nframe=   44 fps=0.3 q=26.8 size=    1280KiB time=00:00:01.40 bitrate=7490.1kbits/s speed=0.0105x elapsed=0:02:13.68    \nframe=   45 fps=0.3 q=27.0 size=    1280KiB time=00:00:01.43 bitrate=7315.9kbits/s speed=0.0107x elapsed=0:02:14.20    \nframe=   45 fps=0.3 q=27.0 size=    1280KiB time=00:00:01.43 bitrate=7315.9kbits/s speed=0.0106x elapsed=0:02:14.72    \nframe=   45 fps=0.3 q=27.0 size=    1280KiB time=00:00:01.43 bitrate=7315.9kbits/s speed=0.0106x elapsed=0:02:15.24    \nframe=   45 fps=0.3 q=27.0 size=    1280KiB time=00:00:01.43 bitrate=7315.9kbits/s speed=0.0106x elapsed=0:02:15.76    \nframe=   46 fps=0.3 q=22.3 size=    1280KiB time=00:00:01.46 bitrate=7149.6kbits/s speed=0.0108x elapsed=0:02:16.31    \nframe=   46 fps=0.3 q=22.3 size=    1280KiB time=00:00:01.46 bitrate=7149.6kbits/s speed=0.0107x elapsed=0:02:16.82    \nframe=   46 fps=0.3 q=22.3 size=    1280KiB time=00:00:01.46 bitrate=7149.6kbits/s speed=0.0107x elapsed=0:02:17.34    \nframe=   47 fps=0.3 q=24.6 size=    1280KiB time=00:00:01.50 bitrate=6990.7kbits/s speed=0.0109x elapsed=0:02:17.87    \nframe=   47 fps=0.3 q=24.6 size=    1280KiB time=00:00:01.50 bitrate=6990.7kbits/s speed=0.0108x elapsed=0:02:18.39    \nframe=   47 fps=0.3 q=24.6 size=    1280KiB time=00:00:01.50 bitrate=6990.7kbits/s speed=0.0108x elapsed=0:02:18.91    \nframe=   47 fps=0.3 q=24.6 size=    1280KiB time=00:00:01.50 bitrate=6990.7kbits/s speed=0.0108x elapsed=0:02:19.42    \nframe=   47 fps=0.3 q=24.6 size=    1280KiB time=00:00:01.50 bitrate=6990.7kbits/s speed=0.0107x elapsed=0:02:19.94    \nframe=   47 fps=0.3 q=24.6 size=    1280KiB time=00:00:01.50 bitrate=6990.7kbits/s speed=0.0107x elapsed=0:02:20.48    \nframe=   47 fps=0.3 q=24.6 size=    1280KiB time=00:00:01.50 bitrate=6990.7kbits/s speed=0.0106x elapsed=0:02:21.00    \nframe=   48 fps=0.3 q=27.3 size=    1280KiB time=00:00:01.53 bitrate=6838.8kbits/s speed=0.0108x elapsed=0:02:21.53    \nframe=   48 fps=0.3 q=27.3 size=    1280KiB time=00:00:01.53 bitrate=6838.8kbits/s speed=0.0108x elapsed=0:02:22.06    \nframe=   48 fps=0.3 q=27.3 size=    1280KiB time=00:00:01.53 bitrate=6838.8kbits/s speed=0.0108x elapsed=0:02:22.58    \nframe=   49 fps=0.3 q=27.2 size=    1536KiB time=00:00:01.56 bitrate=8031.9kbits/s speed=0.0109x elapsed=0:02:23.11    \nframe=   49 fps=0.3 q=27.2 size=    1536KiB time=00:00:01.56 bitrate=8031.9kbits/s speed=0.0109x elapsed=0:02:23.65    \nframe=   49 fps=0.3 q=27.2 size=    1536KiB time=00:00:01.56 bitrate=8031.9kbits/s speed=0.0109x elapsed=0:02:24.17    \nframe=   49 fps=0.3 q=27.2 size=    1536KiB time=00:00:01.56 bitrate=8031.9kbits/s speed=0.0108x elapsed=0:02:24.70    \nframe=   49 fps=0.3 q=27.2 size=    1536KiB time=00:00:01.56 bitrate=8031.9kbits/s speed=0.0108x elapsed=0:02:25.25    \nframe=   49 fps=0.3 q=27.2 size=    1536KiB time=00:00:01.56 bitrate=8031.9kbits/s speed=0.0107x elapsed=0:02:25.77    \nframe=   50 fps=0.3 q=22.0 size=    1536KiB time=00:00:01.60 bitrate=7864.5kbits/s speed=0.0109x elapsed=0:02:26.28    \nframe=   50 fps=0.3 q=22.0 size=    1536KiB time=00:00:01.60 bitrate=7864.5kbits/s speed=0.0109x elapsed=0:02:26.80    \nframe=   50 fps=0.3 q=22.0 size=    1536KiB time=00:00:01.60 bitrate=7864.5kbits/s speed=0.0109x elapsed=0:02:27.32    \nframe=   50 fps=0.3 q=22.0 size=    1536KiB time=00:00:01.60 bitrate=7864.5kbits/s speed=0.0108x elapsed=0:02:27.84    \nframe=   50 fps=0.3 q=22.0 size=    1536KiB time=00:00:01.60 bitrate=7864.5kbits/s speed=0.0108x elapsed=0:02:28.37    \nframe=   50 fps=0.3 q=22.0 size=    1536KiB time=00:00:01.60 bitrate=7864.5kbits/s speed=0.0107x elapsed=0:02:28.90    \nframe=   51 fps=0.3 q=25.0 size=    1536KiB time=00:00:01.63 bitrate=7704.0kbits/s speed=0.0109x elapsed=0:02:29.42    \nframe=   51 fps=0.3 q=25.0 size=    1536KiB time=00:00:01.63 bitrate=7704.0kbits/s speed=0.0109x elapsed=0:02:29.96    \nframe=   51 fps=0.3 q=25.0 size=    1536KiB time=00:00:01.63 bitrate=7704.0kbits/s speed=0.0109x elapsed=0:02:30.51    \nframe=   51 fps=0.3 q=25.0 size=    1536KiB time=00:00:01.63 bitrate=7704.0kbits/s speed=0.0108x elapsed=0:02:31.04    \nframe=   51 fps=0.3 q=25.0 size=    1536KiB time=00:00:01.63 bitrate=7704.0kbits/s speed=0.0108x elapsed=0:02:31.61    \nframe=   51 fps=0.3 q=25.0 size=    1536KiB time=00:00:01.63 bitrate=7704.0kbits/s speed=0.0107x elapsed=0:02:32.18    \nframe=   51 fps=0.3 q=25.0 size=    1536KiB time=00:00:01.63 bitrate=7704.0kbits/s speed=0.0107x elapsed=0:02:32.76    \nframe=   51 fps=0.3 q=25.0 size=    1536KiB time=00:00:01.63 bitrate=7704.0kbits/s speed=0.0107x elapsed=0:02:33.29    \nframe=   51 fps=0.3 q=25.0 size=    1536KiB time=00:00:01.63 bitrate=7704.0kbits/s speed=0.0106x elapsed=0:02:33.93    \nframe=   51 fps=0.3 q=25.0 size=    1536KiB time=00:00:01.63 bitrate=7704.0kbits/s speed=0.0106x elapsed=0:02:34.53    \nframe=   51 fps=0.3 q=25.0 size=    1536KiB time=00:00:01.63 bitrate=7704.0kbits/s speed=0.0105x elapsed=0:02:35.15    \nframe=   51 fps=0.3 q=25.0 size=    1536KiB time=00:00:01.63 bitrate=7704.0kbits/s speed=0.0105x elapsed=0:02:35.71    \nframe=   51 fps=0.3 q=25.0 size=    1536KiB time=00:00:01.63 bitrate=7704.0kbits/s speed=0.0105x elapsed=0:02:36.25    \nframe=   51 fps=0.3 q=25.0 size=    1536KiB time=00:00:01.63 bitrate=7704.0kbits/s speed=0.0104x elapsed=0:02:36.79    \nframe=   51 fps=0.3 q=25.0 size=    1536KiB time=00:00:01.63 bitrate=7704.0kbits/s speed=0.0104x elapsed=0:02:37.35    \nframe=   52 fps=0.3 q=27.1 size=    1536KiB time=00:00:01.66 bitrate=7550.0kbits/s speed=0.0106x elapsed=0:02:37.88    \nframe=   52 fps=0.3 q=27.1 size=    1536KiB time=00:00:01.66 bitrate=7550.0kbits/s speed=0.0105x elapsed=0:02:38.44    \nframe=   52 fps=0.3 q=27.1 size=    1536KiB time=00:00:01.66 bitrate=7550.0kbits/s speed=0.0105x elapsed=0:02:39.02    \nframe=   52 fps=0.3 q=27.1 size=    1536KiB time=00:00:01.66 bitrate=7550.0kbits/s speed=0.0104x elapsed=0:02:39.54    \nframe=   52 fps=0.3 q=27.1 size=    1536KiB time=00:00:01.66 bitrate=7550.0kbits/s speed=0.0104x elapsed=0:02:40.04    \nframe=   53 fps=0.3 q=27.0 size=    1536KiB time=00:00:01.70 bitrate=7401.9kbits/s speed=0.0106x elapsed=0:02:40.56    \nframe=   53 fps=0.3 q=27.0 size=    1536KiB time=00:00:01.70 bitrate=7401.9kbits/s speed=0.0106x elapsed=0:02:41.07    \nframe=   53 fps=0.3 q=27.0 size=    1536KiB time=00:00:01.70 bitrate=7401.9kbits/s speed=0.0105x elapsed=0:02:41.61    \nframe=   53 fps=0.3 q=27.0 size=    1536KiB time=00:00:01.70 bitrate=7401.9kbits/s speed=0.0105x elapsed=0:02:42.15    \nframe=   54 fps=0.3 q=21.8 size=    1536KiB time=00:00:01.73 bitrate=7259.6kbits/s speed=0.0107x elapsed=0:02:42.69    \nframe=   54 fps=0.3 q=21.8 size=    1536KiB time=00:00:01.73 bitrate=7259.6kbits/s speed=0.0106x elapsed=0:02:43.21    \nframe=   54 fps=0.3 q=21.8 size=    1536KiB time=00:00:01.73 bitrate=7259.6kbits/s speed=0.0106x elapsed=0:02:43.73    \nframe=   55 fps=0.3 q=24.8 size=    1536KiB time=00:00:01.76 bitrate=7122.6kbits/s speed=0.0108x elapsed=0:02:44.25    \nframe=   55 fps=0.3 q=24.8 size=    1536KiB time=00:00:01.76 bitrate=7122.6kbits/s speed=0.0107x elapsed=0:02:44.77    \nframe=   55 fps=0.3 q=24.8 size=    1536KiB time=00:00:01.76 bitrate=7122.6kbits/s speed=0.0107x elapsed=0:02:45.30    \nframe=   55 fps=0.3 q=24.8 size=    1536KiB time=00:00:01.76 bitrate=7122.6kbits/s speed=0.0107x elapsed=0:02:45.82    \nframe=   55 fps=0.3 q=24.8 size=    1536KiB time=00:00:01.76 bitrate=7122.6kbits/s speed=0.0106x elapsed=0:02:46.36    \nframe=   56 fps=0.3 q=27.1 size=    1792KiB time=00:00:01.80 bitrate=8155.8kbits/s speed=0.0108x elapsed=0:02:46.89    \nframe=   56 fps=0.3 q=27.1 size=    1792KiB time=00:00:01.80 bitrate=8155.8kbits/s speed=0.0108x elapsed=0:02:47.41    \nframe=   56 fps=0.3 q=27.1 size=    1792KiB time=00:00:01.80 bitrate=8155.8kbits/s speed=0.0107x elapsed=0:02:47.92    \nframe=   57 fps=0.3 q=26.9 size=    1792KiB time=00:00:01.83 bitrate=8007.5kbits/s speed=0.0109x elapsed=0:02:48.43    \nframe=   57 fps=0.3 q=26.9 size=    1792KiB time=00:00:01.83 bitrate=8007.5kbits/s speed=0.0109x elapsed=0:02:48.96    \nframe=   57 fps=0.3 q=26.9 size=    1792KiB time=00:00:01.83 bitrate=8007.5kbits/s speed=0.0108x elapsed=0:02:49.50    \nframe=   57 fps=0.3 q=26.9 size=    1792KiB time=00:00:01.83 bitrate=8007.5kbits/s speed=0.0108x elapsed=0:02:50.03    \nframe=   58 fps=0.3 q=21.8 size=    1792KiB time=00:00:01.86 bitrate=7864.5kbits/s speed=0.0109x elapsed=0:02:50.54    \nframe=   58 fps=0.3 q=21.8 size=    1792KiB time=00:00:01.86 bitrate=7864.5kbits/s speed=0.0109x elapsed=0:02:51.07    \nframe=   59 fps=0.3 q=22.7 size=    1792KiB time=00:00:01.90 bitrate=7726.5kbits/s speed=0.0111x elapsed=0:02:51.57    \nframe=   60 fps=0.3 q=27.1 size=    1792KiB time=00:00:01.93 bitrate=7593.3kbits/s speed=0.0112x elapsed=0:02:52.10    \nframe=   60 fps=0.3 q=27.1 size=    1792KiB time=00:00:01.93 bitrate=7593.3kbits/s speed=0.0112x elapsed=0:02:52.63    \nframe=   60 fps=0.3 q=27.1 size=    1792KiB time=00:00:01.93 bitrate=7593.3kbits/s speed=0.0112x elapsed=0:02:53.15    \nframe=   61 fps=0.4 q=26.9 size=    1792KiB time=00:00:01.96 bitrate=7464.6kbits/s speed=0.0113x elapsed=0:02:53.69    \nframe=   61 fps=0.4 q=26.9 size=    1792KiB time=00:00:01.96 bitrate=7464.6kbits/s speed=0.0113x elapsed=0:02:54.26    \nframe=   61 fps=0.3 q=26.9 size=    1792KiB time=00:00:01.96 bitrate=7464.6kbits/s speed=0.0113x elapsed=0:02:54.78    \nframe=   61 fps=0.3 q=26.9 size=    1792KiB time=00:00:01.96 bitrate=7464.6kbits/s speed=0.0112x elapsed=0:02:55.29    \nframe=   61 fps=0.3 q=26.9 size=    1792KiB time=00:00:01.96 bitrate=7464.6kbits/s speed=0.0112x elapsed=0:02:55.82    \nframe=   61 fps=0.3 q=26.9 size=    1792KiB time=00:00:01.96 bitrate=7464.6kbits/s speed=0.0112x elapsed=0:02:56.36    \nframe=   61 fps=0.3 q=26.9 size=    1792KiB time=00:00:01.96 bitrate=7464.6kbits/s speed=0.0111x elapsed=0:02:56.92    \nframe=   61 fps=0.3 q=26.9 size=    1792KiB time=00:00:01.96 bitrate=7464.6kbits/s speed=0.0111x elapsed=0:02:57.45    \nframe=   62 fps=0.3 q=27.0 size=    1792KiB time=00:00:02.00 bitrate=7340.2kbits/s speed=0.0112x elapsed=0:02:57.98    \nframe=   62 fps=0.3 q=27.0 size=    1792KiB time=00:00:02.00 bitrate=7340.2kbits/s speed=0.0112x elapsed=0:02:58.50    \nframe=   62 fps=0.3 q=27.0 size=    1792KiB time=00:00:02.00 bitrate=7340.2kbits/s speed=0.0112x elapsed=0:02:59.01    \nframe=   62 fps=0.3 q=27.0 size=    1792KiB time=00:00:02.00 bitrate=7340.2kbits/s speed=0.0111x elapsed=0:02:59.54    \nframe=   62 fps=0.3 q=27.0 size=    1792KiB time=00:00:02.00 bitrate=7340.2kbits/s speed=0.0111x elapsed=0:03:00.07    \nframe=   63 fps=0.3 q=21.9 size=    1792KiB time=00:00:02.03 bitrate=7219.9kbits/s speed=0.0113x elapsed=0:03:00.60    \nframe=   64 fps=0.4 q=24.7 size=    2048KiB time=00:00:02.06 bitrate=8118.2kbits/s speed=0.0114x elapsed=0:03:01.13    \nframe=   64 fps=0.4 q=24.7 size=    2048KiB time=00:00:02.06 bitrate=8118.2kbits/s speed=0.0114x elapsed=0:03:01.65    \nframe=   65 fps=0.4 q=26.9 size=    2048KiB time=00:00:02.06 bitrate=8118.2kbits/s speed=0.0113x elapsed=0:03:02.17    \nframe=   65 fps=0.4 q=26.9 size=    2048KiB time=00:00:02.10 bitrate=7989.3kbits/s speed=0.0115x elapsed=0:03:02.72    \nframe=   65 fps=0.4 q=26.9 size=    2048KiB time=00:00:02.10 bitrate=7989.3kbits/s speed=0.0115x elapsed=0:03:03.26    \nframe=   65 fps=0.4 q=26.9 size=    2048KiB time=00:00:02.10 bitrate=7989.3kbits/s speed=0.0114x elapsed=0:03:03.79    \nframe=   65 fps=0.4 q=26.9 size=    2048KiB time=00:00:02.10 bitrate=7989.3kbits/s speed=0.0114x elapsed=0:03:04.31    \nframe=   66 fps=0.4 q=26.7 size=    2048KiB time=00:00:02.13 bitrate=7864.5kbits/s speed=0.0115x elapsed=0:03:04.83    \nframe=   66 fps=0.4 q=26.7 size=    2048KiB time=00:00:02.13 bitrate=7864.5kbits/s speed=0.0115x elapsed=0:03:05.36    \nframe=   66 fps=0.4 q=26.7 size=    2048KiB time=00:00:02.13 bitrate=7864.5kbits/s speed=0.0115x elapsed=0:03:05.87    \nframe=   66 fps=0.4 q=26.7 size=    2048KiB time=00:00:02.13 bitrate=7864.5kbits/s speed=0.0114x elapsed=0:03:06.40    \nframe=   66 fps=0.4 q=26.7 size=    2048KiB time=00:00:02.13 bitrate=7864.5kbits/s speed=0.0114x elapsed=0:03:06.91    \nframe=   66 fps=0.4 q=26.7 size=    2048KiB time=00:00:02.13 bitrate=7864.5kbits/s speed=0.0114x elapsed=0:03:07.45    \nframe=   66 fps=0.4 q=26.7 size=    2048KiB time=00:00:02.13 bitrate=7864.5kbits/s speed=0.0113x elapsed=0:03:07.98    \nframe=   67 fps=0.4 q=21.7 size=    2048KiB time=00:00:02.16 bitrate=7743.5kbits/s speed=0.0115x elapsed=0:03:08.51    \nframe=   68 fps=0.4 q=24.4 size=    2048KiB time=00:00:02.20 bitrate=7626.2kbits/s speed=0.0116x elapsed=0:03:09.04    \nframe=   68 fps=0.4 q=24.4 size=    2048KiB time=00:00:02.20 bitrate=7626.2kbits/s speed=0.0116x elapsed=0:03:09.56    \nframe=   68 fps=0.4 q=24.4 size=    2048KiB time=00:00:02.20 bitrate=7626.2kbits/s speed=0.0116x elapsed=0:03:10.09    \nframe=   68 fps=0.4 q=24.4 size=    2048KiB time=00:00:02.20 bitrate=7626.2kbits/s speed=0.0115x elapsed=0:03:10.63    \nframe=   68 fps=0.4 q=24.4 size=    2048KiB time=00:00:02.20 bitrate=7626.2kbits/s speed=0.0115x elapsed=0:03:11.16    \nframe=   69 fps=0.4 q=27.1 size=    2048KiB time=00:00:02.23 bitrate=7512.3kbits/s speed=0.0117x elapsed=0:03:11.68    \nframe=   69 fps=0.4 q=27.1 size=    2048KiB time=00:00:02.23 bitrate=7512.3kbits/s speed=0.0116x elapsed=0:03:12.18    \nframe=   69 fps=0.4 q=27.1 size=    2048KiB time=00:00:02.23 bitrate=7512.3kbits/s speed=0.0116x elapsed=0:03:12.70    \nframe=   69 fps=0.4 q=27.1 size=    2048KiB time=00:00:02.23 bitrate=7512.3kbits/s speed=0.0116x elapsed=0:03:13.22    \nframe=   70 fps=0.4 q=26.7 size=    2048KiB time=00:00:02.26 bitrate=7401.9kbits/s speed=0.0117x elapsed=0:03:13.75    \nframe=   70 fps=0.4 q=26.7 size=    2048KiB time=00:00:02.26 bitrate=7401.9kbits/s speed=0.0117x elapsed=0:03:14.26    \nframe=   70 fps=0.4 q=26.7 size=    2048KiB time=00:00:02.26 bitrate=7401.9kbits/s speed=0.0116x elapsed=0:03:14.79    \nframe=   70 fps=0.4 q=26.7 size=    2048KiB time=00:00:02.26 bitrate=7401.9kbits/s speed=0.0116x elapsed=0:03:15.29    \nframe=   71 fps=0.4 q=21.8 size=    2048KiB time=00:00:02.30 bitrate=7294.6kbits/s speed=0.0117x elapsed=0:03:15.83    \nframe=   71 fps=0.4 q=21.8 size=    2048KiB time=00:00:02.30 bitrate=7294.6kbits/s speed=0.0117x elapsed=0:03:16.35    \nframe=   72 fps=0.4 q=24.2 size=    2048KiB time=00:00:02.33 bitrate=7190.4kbits/s speed=0.0119x elapsed=0:03:16.88    \nframe=   72 fps=0.4 q=24.2 size=    2048KiB time=00:00:02.33 bitrate=7190.4kbits/s speed=0.0118x elapsed=0:03:17.40    \nframe=   72 fps=0.4 q=24.2 size=    2048KiB time=00:00:02.33 bitrate=7190.4kbits/s speed=0.0118x elapsed=0:03:17.92    \nframe=   72 fps=0.4 q=24.2 size=    2048KiB time=00:00:02.33 bitrate=7190.4kbits/s speed=0.0118x elapsed=0:03:18.44    \nframe=   73 fps=0.4 q=26.9 size=    2304KiB time=00:00:02.36 bitrate=7975.2kbits/s speed=0.0119x elapsed=0:03:18.95    \nframe=   73 fps=0.4 q=26.9 size=    2304KiB time=00:00:02.36 bitrate=7975.2kbits/s speed=0.0119x elapsed=0:03:19.47    \nframe=   73 fps=0.4 q=26.9 size=    2304KiB time=00:00:02.36 bitrate=7975.2kbits/s speed=0.0118x elapsed=0:03:19.99    \nframe=   73 fps=0.4 q=26.9 size=    2304KiB time=00:00:02.36 bitrate=7975.2kbits/s speed=0.0118x elapsed=0:03:20.51    \nframe=   73 fps=0.4 q=26.9 size=    2304KiB time=00:00:02.36 bitrate=7975.2kbits/s speed=0.0118x elapsed=0:03:21.04    \nframe=   74 fps=0.4 q=26.8 size=    2304KiB time=00:00:02.40 bitrate=7864.5kbits/s speed=0.0119x elapsed=0:03:21.54    \nframe=   74 fps=0.4 q=26.8 size=    2304KiB time=00:00:02.40 bitrate=7864.5kbits/s speed=0.0119x elapsed=0:03:22.06    \nframe=   74 fps=0.4 q=26.8 size=    2304KiB time=00:00:02.40 bitrate=7864.5kbits/s speed=0.0118x elapsed=0:03:22.58    \nframe=   75 fps=0.4 q=21.9 size=    2304KiB time=00:00:02.43 bitrate=7756.7kbits/s speed=0.012x elapsed=0:03:23.09    \nframe=   75 fps=0.4 q=21.9 size=    2304KiB time=00:00:02.43 bitrate=7756.7kbits/s speed=0.012x elapsed=0:03:23.61    \nframe=   76 fps=0.4 q=24.3 size=    2304KiB time=00:00:02.46 bitrate=7651.9kbits/s speed=0.0121x elapsed=0:03:24.14    \nframe=   76 fps=0.4 q=24.3 size=    2304KiB time=00:00:02.46 bitrate=7651.9kbits/s speed=0.0121x elapsed=0:03:24.67    \nframe=   76 fps=0.4 q=24.3 size=    2304KiB time=00:00:02.46 bitrate=7651.9kbits/s speed=0.012x elapsed=0:03:25.19    \nframe=   77 fps=0.4 q=26.9 size=    2304KiB time=00:00:02.50 bitrate=7549.9kbits/s speed=0.0122x elapsed=0:03:25.70    \nframe=   77 fps=0.4 q=26.9 size=    2304KiB time=00:00:02.50 bitrate=7549.9kbits/s speed=0.0121x elapsed=0:03:26.22    \nframe=   77 fps=0.4 q=26.9 size=    2304KiB time=00:00:02.50 bitrate=7549.9kbits/s speed=0.0121x elapsed=0:03:26.74    \nframe=   77 fps=0.4 q=26.9 size=    2304KiB time=00:00:02.50 bitrate=7549.9kbits/s speed=0.0121x elapsed=0:03:27.26    \nframe=   77 fps=0.4 q=26.9 size=    2304KiB time=00:00:02.50 bitrate=7549.9kbits/s speed=0.012x elapsed=0:03:27.79    \nframe=   77 fps=0.4 q=26.9 size=    2304KiB time=00:00:02.50 bitrate=7549.9kbits/s speed=0.012x elapsed=0:03:28.31    \nframe=   77 fps=0.4 q=26.9 size=    2304KiB time=00:00:02.50 bitrate=7549.9kbits/s speed=0.012x elapsed=0:03:28.83    \nframe=   78 fps=0.4 q=26.7 size=    2304KiB time=00:00:02.53 bitrate=7450.5kbits/s speed=0.0121x elapsed=0:03:29.36    \nframe=   78 fps=0.4 q=26.7 size=    2304KiB time=00:00:02.53 bitrate=7450.5kbits/s speed=0.0121x elapsed=0:03:29.91    \nframe=   78 fps=0.4 q=26.7 size=    2304KiB time=00:00:02.53 bitrate=7450.5kbits/s speed=0.012x elapsed=0:03:30.44    \nframe=   78 fps=0.4 q=26.7 size=    2304KiB time=00:00:02.53 bitrate=7450.5kbits/s speed=0.012x elapsed=0:03:30.98    \nframe=   78 fps=0.4 q=26.7 size=    2304KiB time=00:00:02.53 bitrate=7450.5kbits/s speed=0.012x elapsed=0:03:31.59    \nframe=   78 fps=0.4 q=26.7 size=    2304KiB time=00:00:02.53 bitrate=7450.5kbits/s speed=0.0119x elapsed=0:03:32.20    \nframe=   78 fps=0.4 q=26.7 size=    2304KiB time=00:00:02.53 bitrate=7450.5kbits/s speed=0.0119x elapsed=0:03:32.75    \nframe=   78 fps=0.4 q=26.7 size=    2304KiB time=00:00:02.53 bitrate=7450.5kbits/s speed=0.0119x elapsed=0:03:33.33    \nframe=   78 fps=0.4 q=26.7 size=    2304KiB time=00:00:02.53 bitrate=7450.5kbits/s speed=0.0118x elapsed=0:03:33.88    \nframe=   78 fps=0.4 q=26.7 size=    2304KiB time=00:00:02.53 bitrate=7450.5kbits/s speed=0.0118x elapsed=0:03:34.39    \nframe=   79 fps=0.4 q=21.8 size=    2304KiB time=00:00:02.56 bitrate=7353.8kbits/s speed=0.0119x elapsed=0:03:34.92    \nframe=   79 fps=0.4 q=21.8 size=    2304KiB time=00:00:02.56 bitrate=7353.8kbits/s speed=0.0119x elapsed=0:03:35.44    \nframe=   80 fps=0.4 q=24.3 size=    2304KiB time=00:00:02.60 bitrate=7259.5kbits/s speed=0.012x elapsed=0:03:35.99    \nframe=   80 fps=0.4 q=24.3 size=    2304KiB time=00:00:02.60 bitrate=7259.5kbits/s speed=0.012x elapsed=0:03:36.50    \nframe=   80 fps=0.4 q=24.3 size=    2304KiB time=00:00:02.60 bitrate=7259.5kbits/s speed=0.012x elapsed=0:03:37.03    \nframe=   81 fps=0.4 q=26.9 size=    2560KiB time=00:00:02.63 bitrate=7964.0kbits/s speed=0.0121x elapsed=0:03:37.55    \nframe=   81 fps=0.4 q=26.9 size=    2560KiB time=00:00:02.63 bitrate=7964.0kbits/s speed=0.0121x elapsed=0:03:38.06    \nframe=   81 fps=0.4 q=26.9 size=    2560KiB time=00:00:02.63 bitrate=7964.0kbits/s speed=0.012x elapsed=0:03:38.58    \nframe=   81 fps=0.4 q=26.9 size=    2560KiB time=00:00:02.63 bitrate=7964.0kbits/s speed=0.012x elapsed=0:03:39.10    \nframe=   82 fps=0.4 q=26.6 size=    2560KiB time=00:00:02.66 bitrate=7864.5kbits/s speed=0.0121x elapsed=0:03:39.61    \nframe=   82 fps=0.4 q=26.6 size=    2560KiB time=00:00:02.66 bitrate=7864.5kbits/s speed=0.0121x elapsed=0:03:40.13    \nframe=   82 fps=0.4 q=26.6 size=    2560KiB time=00:00:02.66 bitrate=7864.5kbits/s speed=0.0121x elapsed=0:03:40.66    \nframe=   82 fps=0.4 q=26.6 size=    2560KiB time=00:00:02.66 bitrate=7864.5kbits/s speed=0.0121x elapsed=0:03:41.20    \nframe=   83 fps=0.4 q=21.8 size=    2560KiB time=00:00:02.70 bitrate=7767.4kbits/s speed=0.0122x elapsed=0:03:41.72    \nframe=   83 fps=0.4 q=21.8 size=    2560KiB time=00:00:02.70 bitrate=7767.4kbits/s speed=0.0121x elapsed=0:03:42.26    \nframe=   84 fps=0.4 q=24.2 size=    2560KiB time=00:00:02.73 bitrate=7672.6kbits/s speed=0.0123x elapsed=0:03:42.79    \nframe=   84 fps=0.4 q=24.2 size=    2560KiB time=00:00:02.73 bitrate=7672.6kbits/s speed=0.0122x elapsed=0:03:43.31    \nframe=   84 fps=0.4 q=24.2 size=    2560KiB time=00:00:02.73 bitrate=7672.6kbits/s speed=0.0122x elapsed=0:03:43.82    \nframe=   84 fps=0.4 q=24.2 size=    2560KiB time=00:00:02.73 bitrate=7672.6kbits/s speed=0.0122x elapsed=0:03:44.35    \nframe=   84 fps=0.4 q=24.2 size=    2560KiB time=00:00:02.73 bitrate=7672.6kbits/s speed=0.0122x elapsed=0:03:44.89    \nframe=   85 fps=0.4 q=26.6 size=    2560KiB time=00:00:02.76 bitrate=7580.2kbits/s speed=0.0123x elapsed=0:03:45.43    \nframe=   85 fps=0.4 q=26.6 size=    2560KiB time=00:00:02.76 bitrate=7580.2kbits/s speed=0.0122x elapsed=0:03:45.96    \nframe=   85 fps=0.4 q=26.6 size=    2560KiB time=00:00:02.76 bitrate=7580.2kbits/s speed=0.0122x elapsed=0:03:46.48    \nframe=   86 fps=0.4 q=26.7 size=    2560KiB time=00:00:02.80 bitrate=7490.0kbits/s speed=0.0123x elapsed=0:03:47.03    \nframe=   86 fps=0.4 q=26.7 size=    2560KiB time=00:00:02.80 bitrate=7490.0kbits/s speed=0.0123x elapsed=0:03:47.56    \nframe=   86 fps=0.4 q=26.7 size=    2560KiB time=00:00:02.80 bitrate=7490.0kbits/s speed=0.0123x elapsed=0:03:48.08    \nframe=   86 fps=0.4 q=26.7 size=    2560KiB time=00:00:02.80 bitrate=7490.0kbits/s speed=0.0122x elapsed=0:03:48.61    \nframe=   86 fps=0.4 q=26.7 size=    2560KiB time=00:00:02.80 bitrate=7490.0kbits/s speed=0.0122x elapsed=0:03:49.14    \nframe=   87 fps=0.4 q=21.7 size=    2560KiB time=00:00:02.83 bitrate=7401.8kbits/s speed=0.0123x elapsed=0:03:49.66    \nframe=   87 fps=0.4 q=21.7 size=    2560KiB time=00:00:02.83 bitrate=7401.8kbits/s speed=0.0123x elapsed=0:03:50.20    \nframe=   87 fps=0.4 q=21.7 size=    2560KiB time=00:00:02.83 bitrate=7401.8kbits/s speed=0.0123x elapsed=0:03:50.72    \nframe=   87 fps=0.4 q=21.7 size=    2560KiB time=00:00:02.83 bitrate=7401.8kbits/s speed=0.0123x elapsed=0:03:51.25    \nframe=   88 fps=0.4 q=24.3 size=    2560KiB time=00:00:02.86 bitrate=7315.8kbits/s speed=0.0124x elapsed=0:03:51.77    \nframe=   88 fps=0.4 q=24.3 size=    2560KiB time=00:00:02.86 bitrate=7315.8kbits/s speed=0.0123x elapsed=0:03:52.30    \nframe=   88 fps=0.4 q=24.3 size=    2560KiB time=00:00:02.86 bitrate=7315.8kbits/s speed=0.0123x elapsed=0:03:52.82    \nframe=   89 fps=0.4 q=26.8 size=    2816KiB time=00:00:02.90 bitrate=7954.8kbits/s speed=0.0124x elapsed=0:03:53.34    \nframe=   89 fps=0.4 q=26.8 size=    2816KiB time=00:00:02.90 bitrate=7954.8kbits/s speed=0.0124x elapsed=0:03:53.86    \nframe=   89 fps=0.4 q=26.8 size=    2816KiB time=00:00:02.90 bitrate=7954.8kbits/s speed=0.0124x elapsed=0:03:54.38    \nframe=   89 fps=0.4 q=26.8 size=    2816KiB time=00:00:02.90 bitrate=7954.8kbits/s speed=0.0123x elapsed=0:03:54.90    \nframe=   90 fps=0.4 q=26.7 size=    2816KiB time=00:00:02.93 bitrate=7864.4kbits/s speed=0.0125x elapsed=0:03:55.42    \nframe=   90 fps=0.4 q=26.7 size=    2816KiB time=00:00:02.93 bitrate=7864.4kbits/s speed=0.0124x elapsed=0:03:55.94    \nframe=   90 fps=0.4 q=26.7 size=    2816KiB time=00:00:02.93 bitrate=7864.4kbits/s speed=0.0124x elapsed=0:03:56.45    \nframe=   90 fps=0.4 q=26.7 size=    2816KiB time=00:00:02.93 bitrate=7864.4kbits/s speed=0.0124x elapsed=0:03:57.02    \nframe=   90 fps=0.4 q=26.7 size=    2816KiB time=00:00:02.93 bitrate=7864.4kbits/s speed=0.0123x elapsed=0:03:57.53    \nframe=   91 fps=0.4 q=21.7 size=    2816KiB time=00:00:02.96 bitrate=7776.1kbits/s speed=0.0125x elapsed=0:03:58.04    \nframe=   91 fps=0.4 q=21.7 size=    2816KiB time=00:00:02.96 bitrate=7776.1kbits/s speed=0.0124x elapsed=0:03:58.56    \nframe=   92 fps=0.4 q=24.1 size=    2816KiB time=00:00:03.00 bitrate=7689.7kbits/s speed=0.0125x elapsed=0:03:59.09    \nframe=   92 fps=0.4 q=24.1 size=    2816KiB time=00:00:03.00 bitrate=7689.7kbits/s speed=0.0125x elapsed=0:03:59.59    \nframe=   92 fps=0.4 q=24.1 size=    2816KiB time=00:00:03.00 bitrate=7689.7kbits/s speed=0.0125x elapsed=0:04:00.11    \nframe=   93 fps=0.4 q=26.7 size=    2816KiB time=00:00:03.03 bitrate=7605.2kbits/s speed=0.0126x elapsed=0:04:00.63    \nframe=   93 fps=0.4 q=26.7 size=    2816KiB time=00:00:03.03 bitrate=7605.2kbits/s speed=0.0126x elapsed=0:04:01.15    \nframe=   94 fps=0.4 q=26.4 size=    2816KiB time=00:00:03.06 bitrate=7522.5kbits/s speed=0.0127x elapsed=0:04:01.68    \nframe=   94 fps=0.4 q=26.4 size=    2816KiB time=00:00:03.06 bitrate=7522.5kbits/s speed=0.0127x elapsed=0:04:02.25    \nframe=   94 fps=0.4 q=26.4 size=    2816KiB time=00:00:03.06 bitrate=7522.5kbits/s speed=0.0126x elapsed=0:04:02.81    \nframe=   94 fps=0.4 q=26.4 size=    2816KiB time=00:00:03.06 bitrate=7522.5kbits/s speed=0.0126x elapsed=0:04:03.33    \nframe=   94 fps=0.4 q=26.4 size=    2816KiB time=00:00:03.06 bitrate=7522.5kbits/s speed=0.0126x elapsed=0:04:03.86    \nframe=   94 fps=0.4 q=26.4 size=    2816KiB time=00:00:03.06 bitrate=7522.5kbits/s speed=0.0125x elapsed=0:04:04.44    \nframe=   94 fps=0.4 q=26.4 size=    2816KiB time=00:00:03.06 bitrate=7522.5kbits/s speed=0.0125x elapsed=0:04:05.06    \nframe=   94 fps=0.4 q=26.4 size=    2816KiB time=00:00:03.06 bitrate=7522.5kbits/s speed=0.0125x elapsed=0:04:05.67    \nframe=   94 fps=0.4 q=26.4 size=    2816KiB time=00:00:03.06 bitrate=7522.5kbits/s speed=0.0125x elapsed=0:04:06.27    \nframe=   94 fps=0.4 q=26.4 size=    2816KiB time=00:00:03.06 bitrate=7522.5kbits/s speed=0.0124x elapsed=0:04:06.86    \nframe=   94 fps=0.4 q=26.4 size=    2816KiB time=00:00:03.06 bitrate=7522.5kbits/s speed=0.0124x elapsed=0:04:07.42    \nframe=   94 fps=0.4 q=26.4 size=    2816KiB time=00:00:03.06 bitrate=7522.5kbits/s speed=0.0124x elapsed=0:04:07.95    \nframe=   94 fps=0.4 q=26.4 size=    2816KiB time=00:00:03.06 bitrate=7522.5kbits/s speed=0.0123x elapsed=0:04:08.48    \nframe=   95 fps=0.4 q=21.6 size=    2816KiB time=00:00:03.10 bitrate=7441.6kbits/s speed=0.0124x elapsed=0:04:09.02    \nframe=   95 fps=0.4 q=21.6 size=    2816KiB time=00:00:03.10 bitrate=7441.6kbits/s speed=0.0124x elapsed=0:04:09.57    \nframe=   95 fps=0.4 q=21.6 size=    2816KiB time=00:00:03.10 bitrate=7441.6kbits/s speed=0.0124x elapsed=0:04:10.11    \nframe=   95 fps=0.4 q=21.6 size=    2816KiB time=00:00:03.10 bitrate=7441.6kbits/s speed=0.0124x elapsed=0:04:10.67    \nframe=   95 fps=0.4 q=21.6 size=    2816KiB time=00:00:03.10 bitrate=7441.6kbits/s speed=0.0123x elapsed=0:04:11.18    \nframe=   95 fps=0.4 q=21.6 size=    2816KiB time=00:00:03.10 bitrate=7441.6kbits/s speed=0.0123x elapsed=0:04:11.70    \nframe=   96 fps=0.4 q=24.1 size=    2816KiB time=00:00:03.13 bitrate=7362.5kbits/s speed=0.0124x elapsed=0:04:12.22    \nframe=   96 fps=0.4 q=24.1 size=    2816KiB time=00:00:03.13 bitrate=7362.5kbits/s speed=0.0124x elapsed=0:04:12.73    \nframe=   96 fps=0.4 q=24.1 size=    2816KiB time=00:00:03.13 bitrate=7362.5kbits/s speed=0.0124x elapsed=0:04:13.26    \nframe=   96 fps=0.4 q=24.1 size=    2816KiB time=00:00:03.13 bitrate=7362.5kbits/s speed=0.0123x elapsed=0:04:13.79    \nframe=   96 fps=0.4 q=24.1 size=    2816KiB time=00:00:03.13 bitrate=7362.5kbits/s speed=0.0123x elapsed=0:04:14.31    \nframe=   97 fps=0.4 q=26.8 size=    3072KiB time=00:00:03.16 bitrate=7947.2kbits/s speed=0.0124x elapsed=0:04:14.83    \nframe=   97 fps=0.4 q=26.8 size=    3072KiB time=00:00:03.16 bitrate=7947.2kbits/s speed=0.0124x elapsed=0:04:15.34    \nframe=   98 fps=0.4 q=26.5 size=    3072KiB time=00:00:03.20 bitrate=7864.4kbits/s speed=0.0125x elapsed=0:04:15.87    \nframe=   98 fps=0.4 q=26.5 size=    3072KiB time=00:00:03.20 bitrate=7864.4kbits/s speed=0.0125x elapsed=0:04:16.40    \nframe=   98 fps=0.4 q=26.5 size=    3072KiB time=00:00:03.20 bitrate=7864.4kbits/s speed=0.0125x elapsed=0:04:16.92    \nframe=   98 fps=0.4 q=26.5 size=    3072KiB time=00:00:03.20 bitrate=7864.4kbits/s speed=0.0124x elapsed=0:04:17.44    \nframe=   98 fps=0.4 q=26.5 size=    3072KiB time=00:00:03.20 bitrate=7864.4kbits/s speed=0.0124x elapsed=0:04:17.95    \nframe=   99 fps=0.4 q=21.5 size=    3072KiB time=00:00:03.23 bitrate=7783.4kbits/s speed=0.0125x elapsed=0:04:18.47    \nframe=   99 fps=0.4 q=21.5 size=    3072KiB time=00:00:03.23 bitrate=7783.4kbits/s speed=0.0125x elapsed=0:04:19.00    \nframe=   99 fps=0.4 q=21.5 size=    3072KiB time=00:00:03.23 bitrate=7783.4kbits/s speed=0.0125x elapsed=0:04:19.53    \nframe=  100 fps=0.4 q=24.3 size=    3072KiB time=00:00:03.26 bitrate=7703.9kbits/s speed=0.0126x elapsed=0:04:20.05    \nframe=  100 fps=0.4 q=24.3 size=    3072KiB time=00:00:03.26 bitrate=7703.9kbits/s speed=0.0125x elapsed=0:04:20.58    \nframe=  100 fps=0.4 q=24.3 size=    3072KiB time=00:00:03.26 bitrate=7703.9kbits/s speed=0.0125x elapsed=0:04:21.11    \nframe=  101 fps=0.4 q=26.6 size=    3072KiB time=00:00:03.30 bitrate=7626.1kbits/s speed=0.0126x elapsed=0:04:21.62    \nframe=  101 fps=0.4 q=26.6 size=    3072KiB time=00:00:03.30 bitrate=7626.1kbits/s speed=0.0126x elapsed=0:04:22.14    \nframe=  101 fps=0.4 q=26.6 size=    3072KiB time=00:00:03.30 bitrate=7626.1kbits/s speed=0.0126x elapsed=0:04:22.66    \nframe=  101 fps=0.4 q=26.6 size=    3072KiB time=00:00:03.30 bitrate=7626.1kbits/s speed=0.0125x elapsed=0:04:23.17    \nframe=  102 fps=0.4 q=26.7 size=    3072KiB time=00:00:03.33 bitrate=7549.9kbits/s speed=0.0126x elapsed=0:04:23.69    \nframe=  102 fps=0.4 q=26.7 size=    3072KiB time=00:00:03.33 bitrate=7549.9kbits/s speed=0.0126x elapsed=0:04:24.21    \nframe=  102 fps=0.4 q=26.7 size=    3072KiB time=00:00:03.33 bitrate=7549.9kbits/s speed=0.0126x elapsed=0:04:24.73    \nframe=  102 fps=0.4 q=26.7 size=    3072KiB time=00:00:03.33 bitrate=7549.9kbits/s speed=0.0126x elapsed=0:04:25.27    \nframe=  103 fps=0.4 q=21.7 size=    3072KiB time=00:00:03.36 bitrate=7475.1kbits/s speed=0.0127x elapsed=0:04:25.79    \nframe=  104 fps=0.4 q=24.4 size=    3328KiB time=00:00:03.40 bitrate=8018.6kbits/s speed=0.0128x elapsed=0:04:26.32    \nframe=  104 fps=0.4 q=24.4 size=    3328KiB time=00:00:03.40 bitrate=8018.6kbits/s speed=0.0127x elapsed=0:04:26.84    \nframe=  104 fps=0.4 q=24.4 size=    3328KiB time=00:00:03.40 bitrate=8018.6kbits/s speed=0.0127x elapsed=0:04:27.36    \nframe=  105 fps=0.4 q=26.9 size=    3328KiB time=00:00:03.43 bitrate=7940.8kbits/s speed=0.0128x elapsed=0:04:27.88    \nframe=  105 fps=0.4 q=26.9 size=    3328KiB time=00:00:03.43 bitrate=7940.8kbits/s speed=0.0128x elapsed=0:04:28.43    \nframe=  105 fps=0.4 q=26.9 size=    3328KiB time=00:00:03.43 bitrate=7940.8kbits/s speed=0.0128x elapsed=0:04:28.96    \nframe=  105 fps=0.4 q=26.9 size=    3328KiB time=00:00:03.43 bitrate=7940.8kbits/s speed=0.0127x elapsed=0:04:29.48    \nframe=  105 fps=0.4 q=26.9 size=    3328KiB time=00:00:03.43 bitrate=7940.8kbits/s speed=0.0127x elapsed=0:04:30.03    \nframe=  106 fps=0.4 q=27.0 size=    3328KiB time=00:00:03.46 bitrate=7864.4kbits/s speed=0.0128x elapsed=0:04:30.55    \nframe=  106 fps=0.4 q=27.0 size=    3328KiB time=00:00:03.46 bitrate=7864.4kbits/s speed=0.0128x elapsed=0:04:31.06    \nframe=  106 fps=0.4 q=27.0 size=    3328KiB time=00:00:03.46 bitrate=7864.4kbits/s speed=0.0128x elapsed=0:04:31.58    \nframe=  106 fps=0.4 q=27.0 size=    3328KiB time=00:00:03.46 bitrate=7864.4kbits/s speed=0.0127x elapsed=0:04:32.10    \nframe=  106 fps=0.4 q=27.0 size=    3328KiB time=00:00:03.46 bitrate=7864.4kbits/s speed=0.0127x elapsed=0:04:32.62    \nframe=  106 fps=0.4 q=27.0 size=    3328KiB time=00:00:03.46 bitrate=7864.4kbits/s speed=0.0127x elapsed=0:04:33.15    \nframe=  106 fps=0.4 q=27.0 size=    3328KiB time=00:00:03.46 bitrate=7864.4kbits/s speed=0.0127x elapsed=0:04:33.67    \nframe=  106 fps=0.4 q=27.0 size=    3328KiB time=00:00:03.46 bitrate=7864.4kbits/s speed=0.0126x elapsed=0:04:34.20    \nframe=  106 fps=0.4 q=27.0 size=    3328KiB time=00:00:03.46 bitrate=7864.4kbits/s speed=0.0126x elapsed=0:04:34.73    \nframe=  106 fps=0.4 q=27.0 size=    3328KiB time=00:00:03.46 bitrate=7864.4kbits/s speed=0.0126x elapsed=0:04:35.25    \nframe=  106 fps=0.4 q=27.0 size=    3328KiB time=00:00:03.46 bitrate=7864.4kbits/s speed=0.0126x elapsed=0:04:35.80    \nframe=  107 fps=0.4 q=21.9 size=    3328KiB time=00:00:03.50 bitrate=7789.5kbits/s speed=0.0127x elapsed=0:04:36.34    \nframe=  108 fps=0.4 q=24.7 size=    3328KiB time=00:00:03.53 bitrate=7716.0kbits/s speed=0.0128x elapsed=0:04:36.87    \nframe=  108 fps=0.4 q=24.7 size=    3328KiB time=00:00:03.53 bitrate=7716.0kbits/s speed=0.0127x elapsed=0:04:37.39    \nframe=  108 fps=0.4 q=24.7 size=    3328KiB time=00:00:03.53 bitrate=7716.0kbits/s speed=0.0127x elapsed=0:04:37.94    \nframe=  108 fps=0.4 q=24.7 size=    3328KiB time=00:00:03.53 bitrate=7716.0kbits/s speed=0.0127x elapsed=0:04:38.48    \nframe=  108 fps=0.4 q=24.7 size=    3328KiB time=00:00:03.53 bitrate=7716.0kbits/s speed=0.0127x elapsed=0:04:39.00    \nframe=  109 fps=0.4 q=26.9 size=    3328KiB time=00:00:03.56 bitrate=7643.9kbits/s speed=0.0128x elapsed=0:04:39.52    \nframe=  109 fps=0.4 q=26.9 size=    3328KiB time=00:00:03.56 bitrate=7643.9kbits/s speed=0.0127x elapsed=0:04:40.06    \nframe=  109 fps=0.4 q=26.9 size=    3328KiB time=00:00:03.56 bitrate=7643.9kbits/s speed=0.0127x elapsed=0:04:40.59    \nframe=  109 fps=0.4 q=26.9 size=    3328KiB time=00:00:03.56 bitrate=7643.9kbits/s speed=0.0127x elapsed=0:04:41.13    \nframe=  109 fps=0.4 q=26.9 size=    3328KiB time=00:00:03.56 bitrate=7643.9kbits/s speed=0.0127x elapsed=0:04:41.67    \nframe=  109 fps=0.4 q=26.9 size=    3328KiB time=00:00:03.56 bitrate=7643.9kbits/s speed=0.0126x elapsed=0:04:42.26    \nframe=  109 fps=0.4 q=26.9 size=    3328KiB time=00:00:03.56 bitrate=7643.9kbits/s speed=0.0126x elapsed=0:04:42.88    \nframe=  109 fps=0.4 q=26.9 size=    3328KiB time=00:00:03.56 bitrate=7643.9kbits/s speed=0.0126x elapsed=0:04:43.41    \nframe=  109 fps=0.4 q=26.9 size=    3328KiB time=00:00:03.56 bitrate=7643.9kbits/s speed=0.0126x elapsed=0:04:43.94    \nframe=  110 fps=0.4 q=27.1 size=    3328KiB time=00:00:03.60 bitrate=7573.1kbits/s speed=0.0127x elapsed=0:04:44.47    \nframe=  110 fps=0.4 q=27.1 size=    3328KiB time=00:00:03.60 bitrate=7573.1kbits/s speed=0.0126x elapsed=0:04:45.03    \nframe=  110 fps=0.4 q=27.1 size=    3328KiB time=00:00:03.60 bitrate=7573.1kbits/s speed=0.0126x elapsed=0:04:45.57    \nframe=  110 fps=0.4 q=27.1 size=    3328KiB time=00:00:03.60 bitrate=7573.1kbits/s speed=0.0126x elapsed=0:04:46.11    \nframe=  111 fps=0.4 q=22.1 size=    3328KiB time=00:00:03.63 bitrate=7503.7kbits/s speed=0.0127x elapsed=0:04:46.64    \nframe=  111 fps=0.4 q=22.1 size=    3328KiB time=00:00:03.63 bitrate=7503.7kbits/s speed=0.0127x elapsed=0:04:47.15    \nframe=  112 fps=0.4 q=24.9 size=    3584KiB time=00:00:03.66 bitrate=8007.4kbits/s speed=0.0127x elapsed=0:04:47.68    \nframe=  112 fps=0.4 q=24.9 size=    3584KiB time=00:00:03.66 bitrate=8007.4kbits/s speed=0.0127x elapsed=0:04:48.26    \nframe=  112 fps=0.4 q=24.9 size=    3584KiB time=00:00:03.66 bitrate=8007.4kbits/s speed=0.0127x elapsed=0:04:48.82    \nframe=  112 fps=0.4 q=24.9 size=    3584KiB time=00:00:03.66 bitrate=8007.4kbits/s speed=0.0127x elapsed=0:04:49.37    \nframe=  112 fps=0.4 q=24.9 size=    3584KiB time=00:00:03.66 bitrate=8007.4kbits/s speed=0.0126x elapsed=0:04:49.95    \nframe=  112 fps=0.4 q=24.9 size=    3584KiB time=00:00:03.66 bitrate=8007.4kbits/s speed=0.0126x elapsed=0:04:50.49    \nframe=  112 fps=0.4 q=24.9 size=    3584KiB time=00:00:03.66 bitrate=8007.4kbits/s speed=0.0126x elapsed=0:04:51.04    \nframe=  112 fps=0.4 q=24.9 size=    3584KiB time=00:00:03.66 bitrate=8007.4kbits/s speed=0.0126x elapsed=0:04:51.57    \nframe=  112 fps=0.4 q=24.9 size=    3584KiB time=00:00:03.66 bitrate=8007.4kbits/s speed=0.0126x elapsed=0:04:52.16    \nframe=  112 fps=0.4 q=24.9 size=    3584KiB time=00:00:03.66 bitrate=8007.4kbits/s speed=0.0125x elapsed=0:04:52.71    \nframe=  112 fps=0.4 q=24.9 size=    3584KiB time=00:00:03.66 bitrate=8007.4kbits/s speed=0.0125x elapsed=0:04:53.25    \nframe=  112 fps=0.4 q=24.9 size=    3584KiB time=00:00:03.66 bitrate=8007.4kbits/s speed=0.0125x elapsed=0:04:53.77    \nframe=  112 fps=0.4 q=24.9 size=    3584KiB time=00:00:03.66 bitrate=8007.4kbits/s speed=0.0125x elapsed=0:04:54.32    \nframe=  112 fps=0.4 q=24.9 size=    3584KiB time=00:00:03.66 bitrate=8007.4kbits/s speed=0.0124x elapsed=0:04:54.89    \nframe=  112 fps=0.4 q=24.9 size=    3584KiB time=00:00:03.66 bitrate=8007.4kbits/s speed=0.0124x elapsed=0:04:55.48    \nframe=  112 fps=0.4 q=24.9 size=    3584KiB time=00:00:03.66 bitrate=8007.4kbits/s speed=0.0124x elapsed=0:04:56.04    \nframe=  112 fps=0.4 q=24.9 size=    3584KiB time=00:00:03.66 bitrate=8007.4kbits/s speed=0.0124x elapsed=0:04:56.61    \nframe=  112 fps=0.4 q=24.9 size=    3584KiB time=00:00:03.66 bitrate=8007.4kbits/s speed=0.0123x elapsed=0:04:57.16    \nframe=  113 fps=0.4 q=27.3 size=    3584KiB time=00:00:03.70 bitrate=7935.3kbits/s speed=0.0124x elapsed=0:04:57.69    \nframe=  113 fps=0.4 q=27.3 size=    3584KiB time=00:00:03.70 bitrate=7935.3kbits/s speed=0.0124x elapsed=0:04:58.24    \nframe=  113 fps=0.4 q=27.3 size=    3584KiB time=00:00:03.70 bitrate=7935.3kbits/s speed=0.0124x elapsed=0:04:58.78    \nframe=  113 fps=0.4 q=27.3 size=    3584KiB time=00:00:03.70 bitrate=7935.3kbits/s speed=0.0124x elapsed=0:04:59.29    \nframe=  113 fps=0.4 q=27.3 size=    3584KiB time=00:00:03.70 bitrate=7935.3kbits/s speed=0.0123x elapsed=0:04:59.82    \nframe=  113 fps=0.4 q=27.3 size=    3584KiB time=00:00:03.70 bitrate=7935.3kbits/s speed=0.0123x elapsed=0:05:00.37    \nframe=  113 fps=0.4 q=27.3 size=    3584KiB time=00:00:03.70 bitrate=7935.3kbits/s speed=0.0123x elapsed=0:05:00.90    \nframe=  114 fps=0.4 q=27.2 size=    3584KiB time=00:00:03.73 bitrate=7864.4kbits/s speed=0.0124x elapsed=0:05:01.45    \nframe=  114 fps=0.4 q=27.2 size=    3584KiB time=00:00:03.73 bitrate=7864.4kbits/s speed=0.0124x elapsed=0:05:01.96    \nframe=  114 fps=0.4 q=27.2 size=    3584KiB time=00:00:03.73 bitrate=7864.4kbits/s speed=0.0123x elapsed=0:05:02.49    \nframe=  115 fps=0.4 q=22.0 size=    3584KiB time=00:00:03.76 bitrate=7794.8kbits/s speed=0.0124x elapsed=0:05:03.03    \nframe=  115 fps=0.4 q=22.0 size=    3584KiB time=00:00:03.76 bitrate=7794.8kbits/s speed=0.0124x elapsed=0:05:03.54    \nframe=  115 fps=0.4 q=22.0 size=    3584KiB time=00:00:03.76 bitrate=7794.8kbits/s speed=0.0124x elapsed=0:05:04.07    \nframe=  116 fps=0.4 q=25.0 size=    3584KiB time=00:00:03.80 bitrate=7726.4kbits/s speed=0.0125x elapsed=0:05:04.57    \nframe=  116 fps=0.4 q=25.0 size=    3584KiB time=00:00:03.80 bitrate=7726.4kbits/s speed=0.0125x elapsed=0:05:05.09    \nframe=  116 fps=0.4 q=25.0 size=    3584KiB time=00:00:03.80 bitrate=7726.4kbits/s speed=0.0124x elapsed=0:05:05.61    \nframe=  116 fps=0.4 q=25.0 size=    3584KiB time=00:00:03.80 bitrate=7726.4kbits/s speed=0.0124x elapsed=0:05:06.12    \nframe=  116 fps=0.4 q=25.0 size=    3584KiB time=00:00:03.80 bitrate=7726.4kbits/s speed=0.0124x elapsed=0:05:06.64    \nframe=  117 fps=0.4 q=27.1 size=    3584KiB time=00:00:03.83 bitrate=7659.3kbits/s speed=0.0125x elapsed=0:05:07.16    \nframe=  117 fps=0.4 q=27.1 size=    3584KiB time=00:00:03.83 bitrate=7659.3kbits/s speed=0.0125x elapsed=0:05:07.68    \nframe=  118 fps=0.4 q=27.2 size=    3584KiB time=00:00:03.86 bitrate=7593.2kbits/s speed=0.0125x elapsed=0:05:08.20    \nframe=  118 fps=0.4 q=27.2 size=    3584KiB time=00:00:03.86 bitrate=7593.2kbits/s speed=0.0125x elapsed=0:05:08.73    \nframe=  118 fps=0.4 q=27.2 size=    3584KiB time=00:00:03.86 bitrate=7593.2kbits/s speed=0.0125x elapsed=0:05:09.25    \nframe=  118 fps=0.4 q=27.2 size=    3584KiB time=00:00:03.86 bitrate=7593.2kbits/s speed=0.0125x elapsed=0:05:09.79    \nframe=  118 fps=0.4 q=27.2 size=    3584KiB time=00:00:03.86 bitrate=7593.2kbits/s speed=0.0125x elapsed=0:05:10.32    \nframe=  118 fps=0.4 q=27.2 size=    3584KiB time=00:00:03.86 bitrate=7593.2kbits/s speed=0.0124x elapsed=0:05:10.85    \nframe=  119 fps=0.4 q=22.0 size=    3584KiB time=00:00:03.90 bitrate=7528.3kbits/s speed=0.0125x elapsed=0:05:11.37    \nframe=  119 fps=0.4 q=22.0 size=    3584KiB time=00:00:03.90 bitrate=7528.3kbits/s speed=0.0125x elapsed=0:05:11.89    \nframe=  119 fps=0.4 q=22.0 size=    3584KiB time=00:00:03.90 bitrate=7528.3kbits/s speed=0.0125x elapsed=0:05:12.41    \nframe=  120 fps=0.4 q=25.0 size=    3840KiB time=00:00:03.93 bitrate=7997.7kbits/s speed=0.0126x elapsed=0:05:12.92    \nframe=  120 fps=0.4 q=25.0 size=    3840KiB time=00:00:03.93 bitrate=7997.7kbits/s speed=0.0125x elapsed=0:05:13.43    \nframe=  121 fps=0.4 q=27.2 size=    3840KiB time=00:00:03.96 bitrate=7930.5kbits/s speed=0.0126x elapsed=0:05:13.97    \nframe=  121 fps=0.4 q=27.2 size=    3840KiB time=00:00:03.96 bitrate=7930.5kbits/s speed=0.0126x elapsed=0:05:14.48    \nframe=  121 fps=0.4 q=27.2 size=    3840KiB time=00:00:03.96 bitrate=7930.5kbits/s speed=0.0126x elapsed=0:05:15.01    \nframe=  122 fps=0.4 q=27.2 size=    3840KiB time=00:00:04.00 bitrate=7864.4kbits/s speed=0.0127x elapsed=0:05:15.56    \nframe=  122 fps=0.4 q=27.2 size=    3840KiB time=00:00:04.00 bitrate=7864.4kbits/s speed=0.0127x elapsed=0:05:16.07    \nframe=  122 fps=0.4 q=27.2 size=    3840KiB time=00:00:04.00 bitrate=7864.4kbits/s speed=0.0126x elapsed=0:05:16.60    \nframe=  122 fps=0.4 q=27.2 size=    3840KiB time=00:00:04.00 bitrate=7864.4kbits/s speed=0.0126x elapsed=0:05:17.11    \nframe=  123 fps=0.4 q=22.1 size=    3840KiB time=00:00:04.03 bitrate=7799.4kbits/s speed=0.0127x elapsed=0:05:17.64    \nframe=  123 fps=0.4 q=22.1 size=    3840KiB time=00:00:04.03 bitrate=7799.4kbits/s speed=0.0127x elapsed=0:05:18.16    \nframe=  123 fps=0.4 q=22.1 size=    3840KiB time=00:00:04.03 bitrate=7799.4kbits/s speed=0.0127x elapsed=0:05:18.68    \nframe=  124 fps=0.4 q=24.7 size=    3840KiB time=00:00:04.06 bitrate=7735.5kbits/s speed=0.0127x elapsed=0:05:19.19    \nframe=  124 fps=0.4 q=24.7 size=    3840KiB time=00:00:04.06 bitrate=7735.5kbits/s speed=0.0127x elapsed=0:05:19.72    \nframe=  124 fps=0.4 q=24.7 size=    3840KiB time=00:00:04.06 bitrate=7735.5kbits/s speed=0.0127x elapsed=0:05:20.25    \nframe=  124 fps=0.4 q=24.7 size=    3840KiB time=00:00:04.06 bitrate=7735.5kbits/s speed=0.0127x elapsed=0:05:20.76    \nframe=  124 fps=0.4 q=24.7 size=    3840KiB time=00:00:04.06 bitrate=7735.5kbits/s speed=0.0127x elapsed=0:05:21.31    \nframe=  124 fps=0.4 q=24.7 size=    3840KiB time=00:00:04.06 bitrate=7735.5kbits/s speed=0.0126x elapsed=0:05:21.84    \nframe=  125 fps=0.4 q=27.0 size=    3840KiB time=00:00:04.10 bitrate=7672.6kbits/s speed=0.0127x elapsed=0:05:22.39    \nframe=  125 fps=0.4 q=27.0 size=    3840KiB time=00:00:04.10 bitrate=7672.6kbits/s speed=0.0127x elapsed=0:05:22.93    \nframe=  125 fps=0.4 q=27.0 size=    3840KiB time=00:00:04.10 bitrate=7672.6kbits/s speed=0.0127x elapsed=0:05:23.47    \nframe=  125 fps=0.4 q=27.0 size=    3840KiB time=00:00:04.10 bitrate=7672.6kbits/s speed=0.0127x elapsed=0:05:24.01    \nframe=  125 fps=0.4 q=27.0 size=    3840KiB time=00:00:04.10 bitrate=7672.6kbits/s speed=0.0126x elapsed=0:05:24.54    \nframe=  125 fps=0.4 q=27.0 size=    3840KiB time=00:00:04.10 bitrate=7672.6kbits/s speed=0.0126x elapsed=0:05:25.06    \nframe=  125 fps=0.4 q=27.0 size=    3840KiB time=00:00:04.10 bitrate=7672.6kbits/s speed=0.0126x elapsed=0:05:25.60    \nframe=  126 fps=0.4 q=26.9 size=    3840KiB time=00:00:04.13 bitrate=7610.7kbits/s speed=0.0127x elapsed=0:05:26.12    \nframe=  126 fps=0.4 q=26.9 size=    3840KiB time=00:00:04.13 bitrate=7610.7kbits/s speed=0.0127x elapsed=0:05:26.64    \nframe=  126 fps=0.4 q=26.9 size=    3840KiB time=00:00:04.13 bitrate=7610.7kbits/s speed=0.0126x elapsed=0:05:27.16    \nframe=  127 fps=0.4 q=21.8 size=    3840KiB time=00:00:04.16 bitrate=7549.8kbits/s speed=0.0127x elapsed=0:05:27.67    \nframe=  127 fps=0.4 q=21.8 size=    3840KiB time=00:00:04.16 bitrate=7549.8kbits/s speed=0.0127x elapsed=0:05:28.20    \nframe=  127 fps=0.4 q=21.8 size=    3840KiB time=00:00:04.16 bitrate=7549.8kbits/s speed=0.0127x elapsed=0:05:28.74    \nframe=  127 fps=0.4 q=21.8 size=    3840KiB time=00:00:04.16 bitrate=7549.8kbits/s speed=0.0127x elapsed=0:05:29.26    \nframe=  127 fps=0.4 q=21.8 size=    3840KiB time=00:00:04.16 bitrate=7549.8kbits/s speed=0.0126x elapsed=0:05:29.79    \nframe=  127 fps=0.4 q=21.8 size=    3840KiB time=00:00:04.16 bitrate=7549.8kbits/s speed=0.0126x elapsed=0:05:30.33    \nframe=  128 fps=0.4 q=24.6 size=    4096KiB time=00:00:04.20 bitrate=7989.2kbits/s speed=0.0127x elapsed=0:05:30.84    \nframe=  128 fps=0.4 q=24.6 size=    4096KiB time=00:00:04.20 bitrate=7989.2kbits/s speed=0.0127x elapsed=0:05:31.36    \nframe=  128 fps=0.4 q=24.6 size=    4096KiB time=00:00:04.20 bitrate=7989.2kbits/s speed=0.0127x elapsed=0:05:31.88    \nframe=  128 fps=0.4 q=24.6 size=    4096KiB time=00:00:04.20 bitrate=7989.2kbits/s speed=0.0126x elapsed=0:05:32.41    \nframe=  128 fps=0.4 q=24.6 size=    4096KiB time=00:00:04.20 bitrate=7989.2kbits/s speed=0.0126x elapsed=0:05:32.92    \nframe=  128 fps=0.4 q=24.6 size=    4096KiB time=00:00:04.20 bitrate=7989.2kbits/s speed=0.0126x elapsed=0:05:33.47    \nframe=  129 fps=0.4 q=26.9 size=    4096KiB time=00:00:04.23 bitrate=7926.3kbits/s speed=0.0127x elapsed=0:05:33.99    \nframe=  129 fps=0.4 q=26.9 size=    4096KiB time=00:00:04.23 bitrate=7926.3kbits/s speed=0.0127x elapsed=0:05:34.51    \nframe=  129 fps=0.4 q=26.9 size=    4096KiB time=00:00:04.23 bitrate=7926.3kbits/s speed=0.0126x elapsed=0:05:35.01    \nframe=  129 fps=0.4 q=26.9 size=    4096KiB time=00:00:04.23 bitrate=7926.3kbits/s speed=0.0126x elapsed=0:05:35.56    \nframe=  129 fps=0.4 q=26.9 size=    4096KiB time=00:00:04.23 bitrate=7926.3kbits/s speed=0.0126x elapsed=0:05:36.10    \nframe=  129 fps=0.4 q=26.9 size=    4096KiB time=00:00:04.23 bitrate=7926.3kbits/s speed=0.0126x elapsed=0:05:36.63    \nframe=  129 fps=0.4 q=26.9 size=    4096KiB time=00:00:04.23 bitrate=7926.3kbits/s speed=0.0126x elapsed=0:05:37.14    \nframe=  129 fps=0.4 q=26.9 size=    4096KiB time=00:00:04.23 bitrate=7926.3kbits/s speed=0.0125x elapsed=0:05:37.74    \nframe=  129 fps=0.4 q=26.9 size=    4096KiB time=00:00:04.23 bitrate=7926.3kbits/s speed=0.0125x elapsed=0:05:38.40    \nframe=  130 fps=0.4 q=26.6 size=    4096KiB time=00:00:04.26 bitrate=7864.4kbits/s speed=0.0126x elapsed=0:05:38.97    \nframe=  131 fps=0.4 q=21.8 size=    4096KiB time=00:00:04.30 bitrate=7803.4kbits/s speed=0.0127x elapsed=0:05:39.51    \nframe=  131 fps=0.4 q=21.8 size=    4096KiB time=00:00:04.30 bitrate=7803.4kbits/s speed=0.0126x elapsed=0:05:40.07    \nframe=  131 fps=0.4 q=21.8 size=    4096KiB time=00:00:04.30 bitrate=7803.4kbits/s speed=0.0126x elapsed=0:05:40.63    \nframe=  131 fps=0.4 q=21.8 size=    4096KiB time=00:00:04.30 bitrate=7803.4kbits/s speed=0.0126x elapsed=0:05:41.16    \nframe=  131 fps=0.4 q=21.8 size=    4096KiB time=00:00:04.30 bitrate=7803.4kbits/s speed=0.0126x elapsed=0:05:41.71    \nframe=  131 fps=0.4 q=21.8 size=    4096KiB time=00:00:04.30 bitrate=7803.4kbits/s speed=0.0126x elapsed=0:05:42.23    \nframe=  132 fps=0.4 q=24.4 size=    4096KiB time=00:00:04.33 bitrate=7743.4kbits/s speed=0.0126x elapsed=0:05:42.77    \nframe=  132 fps=0.4 q=24.4 size=    4096KiB time=00:00:04.33 bitrate=7743.4kbits/s speed=0.0126x elapsed=0:05:43.33    \nframe=  132 fps=0.4 q=24.4 size=    4096KiB time=00:00:04.33 bitrate=7743.4kbits/s speed=0.0126x elapsed=0:05:43.86    \nframe=  132 fps=0.4 q=24.4 size=    4096KiB time=00:00:04.33 bitrate=7743.4kbits/s speed=0.0126x elapsed=0:05:44.39    \nframe=  133 fps=0.4 q=26.8 size=    4096KiB time=00:00:04.36 bitrate=7684.3kbits/s speed=0.0127x elapsed=0:05:44.91    \nframe=  133 fps=0.4 q=26.8 size=    4096KiB time=00:00:04.36 bitrate=7684.3kbits/s speed=0.0126x elapsed=0:05:45.43    \nframe=  133 fps=0.4 q=26.8 size=    4096KiB time=00:00:04.36 bitrate=7684.3kbits/s speed=0.0126x elapsed=0:05:45.95    \nframe=  133 fps=0.4 q=26.8 size=    4096KiB time=00:00:04.36 bitrate=7684.3kbits/s speed=0.0126x elapsed=0:05:46.47    \nframe=  133 fps=0.4 q=26.8 size=    4096KiB time=00:00:04.36 bitrate=7684.3kbits/s speed=0.0126x elapsed=0:05:47.06    \nframe=  133 fps=0.4 q=26.8 size=    4096KiB time=00:00:04.36 bitrate=7684.3kbits/s speed=0.0126x elapsed=0:05:47.60    \nframe=  133 fps=0.4 q=26.8 size=    4096KiB time=00:00:04.36 bitrate=7684.3kbits/s speed=0.0125x elapsed=0:05:48.17    \nframe=  133 fps=0.4 q=26.8 size=    4096KiB time=00:00:04.36 bitrate=7684.3kbits/s speed=0.0125x elapsed=0:05:48.73    \nframe=  133 fps=0.4 q=26.8 size=    4096KiB time=00:00:04.36 bitrate=7684.3kbits/s speed=0.0125x elapsed=0:05:49.31    \nframe=  133 fps=0.4 q=26.8 size=    4096KiB time=00:00:04.36 bitrate=7684.3kbits/s speed=0.0125x elapsed=0:05:49.87    \nframe=  133 fps=0.4 q=26.8 size=    4096KiB time=00:00:04.36 bitrate=7684.3kbits/s speed=0.0125x elapsed=0:05:50.39    \nframe=  133 fps=0.4 q=26.8 size=    4096KiB time=00:00:04.36 bitrate=7684.3kbits/s speed=0.0124x elapsed=0:05:50.93    \nframe=  134 fps=0.4 q=26.6 size=    4096KiB time=00:00:04.40 bitrate=7626.1kbits/s speed=0.0125x elapsed=0:05:51.51    \nframe=  134 fps=0.4 q=26.6 size=    4096KiB time=00:00:04.40 bitrate=7626.1kbits/s speed=0.0125x elapsed=0:05:52.11    \nframe=  134 fps=0.4 q=26.6 size=    4096KiB time=00:00:04.40 bitrate=7626.1kbits/s speed=0.0125x elapsed=0:05:52.64    \nframe=  134 fps=0.4 q=26.6 size=    4096KiB time=00:00:04.40 bitrate=7626.1kbits/s speed=0.0125x elapsed=0:05:53.17    \nframe=  134 fps=0.4 q=26.6 size=    4096KiB time=00:00:04.40 bitrate=7626.1kbits/s speed=0.0124x elapsed=0:05:53.70    \nframe=  135 fps=0.4 q=21.8 size=    4096KiB time=00:00:04.43 bitrate=7568.7kbits/s speed=0.0125x elapsed=0:05:54.24    \nframe=  135 fps=0.4 q=21.8 size=    4096KiB time=00:00:04.43 bitrate=7568.7kbits/s speed=0.0125x elapsed=0:05:54.78    \nframe=  136 fps=0.4 q=24.4 size=    4352KiB time=00:00:04.46 bitrate=7981.8kbits/s speed=0.0126x elapsed=0:05:55.30    \nframe=  136 fps=0.4 q=24.4 size=    4352KiB time=00:00:04.46 bitrate=7981.8kbits/s speed=0.0126x elapsed=0:05:55.81    \nframe=  136 fps=0.4 q=24.4 size=    4352KiB time=00:00:04.46 bitrate=7981.8kbits/s speed=0.0125x elapsed=0:05:56.33    \nframe=  136 fps=0.4 q=24.4 size=    4352KiB time=00:00:04.46 bitrate=7981.8kbits/s speed=0.0125x elapsed=0:05:56.85    \nframe=  137 fps=0.4 q=26.5 size=    4352KiB time=00:00:04.50 bitrate=7922.7kbits/s speed=0.0126x elapsed=0:05:57.37    \nframe=  137 fps=0.4 q=26.5 size=    4352KiB time=00:00:04.50 bitrate=7922.7kbits/s speed=0.0126x elapsed=0:05:57.89    \nframe=  137 fps=0.4 q=26.5 size=    4352KiB time=00:00:04.50 bitrate=7922.7kbits/s speed=0.0126x elapsed=0:05:58.44    \nframe=  137 fps=0.4 q=26.5 size=    4352KiB time=00:00:04.50 bitrate=7922.7kbits/s speed=0.0125x elapsed=0:05:58.95    \nframe=  137 fps=0.4 q=26.5 size=    4352KiB time=00:00:04.50 bitrate=7922.7kbits/s speed=0.0125x elapsed=0:05:59.47    \nframe=  138 fps=0.4 q=26.3 size=    4352KiB time=00:00:04.53 bitrate=7864.4kbits/s speed=0.0126x elapsed=0:05:59.99    \nframe=  138 fps=0.4 q=26.3 size=    4352KiB time=00:00:04.53 bitrate=7864.4kbits/s speed=0.0126x elapsed=0:06:00.51    \nframe=  139 fps=0.4 q=21.7 size=    4352KiB time=00:00:04.56 bitrate=7807.0kbits/s speed=0.0126x elapsed=0:06:01.03    \nframe=  139 fps=0.4 q=21.7 size=    4352KiB time=00:00:04.56 bitrate=7807.0kbits/s speed=0.0126x elapsed=0:06:01.55    \nframe=  139 fps=0.4 q=21.7 size=    4352KiB time=00:00:04.56 bitrate=7807.0kbits/s speed=0.0126x elapsed=0:06:02.08    \nframe=  139 fps=0.4 q=21.7 size=    4352KiB time=00:00:04.56 bitrate=7807.0kbits/s speed=0.0126x elapsed=0:06:02.60    \nframe=  140 fps=0.4 q=24.2 size=    4352KiB time=00:00:04.60 bitrate=7750.4kbits/s speed=0.0127x elapsed=0:06:03.11    \nframe=  140 fps=0.4 q=24.2 size=    4352KiB time=00:00:04.60 bitrate=7750.4kbits/s speed=0.0127x elapsed=0:06:03.63    \nframe=  141 fps=0.4 q=26.3 size=    4352KiB time=00:00:04.63 bitrate=7694.7kbits/s speed=0.0127x elapsed=0:06:04.13    \nframe=  141 fps=0.4 q=26.3 size=    4352KiB time=00:00:04.63 bitrate=7694.7kbits/s speed=0.0127x elapsed=0:06:04.66    \nframe=  141 fps=0.4 q=26.3 size=    4352KiB time=00:00:04.63 bitrate=7694.7kbits/s speed=0.0127x elapsed=0:06:05.18    \nframe=  141 fps=0.4 q=26.3 size=    4352KiB time=00:00:04.63 bitrate=7694.7kbits/s speed=0.0127x elapsed=0:06:05.71    \nframe=  142 fps=0.4 q=25.8 size=    4352KiB time=00:00:04.66 bitrate=7639.7kbits/s speed=0.0127x elapsed=0:06:06.26    \nframe=  142 fps=0.4 q=25.8 size=    4352KiB time=00:00:04.66 bitrate=7639.7kbits/s speed=0.0127x elapsed=0:06:06.79    \nframe=  142 fps=0.4 q=25.8 size=    4352KiB time=00:00:04.66 bitrate=7639.7kbits/s speed=0.0127x elapsed=0:06:07.31    \nframe=  143 fps=0.4 q=21.9 size=    4352KiB time=00:00:04.70 bitrate=7585.5kbits/s speed=0.0128x elapsed=0:06:07.83    \nframe=  143 fps=0.4 q=21.9 size=    4352KiB time=00:00:04.70 bitrate=7585.5kbits/s speed=0.0128x elapsed=0:06:08.36    \nframe=  143 fps=0.4 q=21.9 size=    4352KiB time=00:00:04.70 bitrate=7585.5kbits/s speed=0.0127x elapsed=0:06:08.88    \nframe=  144 fps=0.4 q=23.8 size=    4608KiB time=00:00:04.73 bitrate=7975.2kbits/s speed=0.0128x elapsed=0:06:09.40    \nframe=  144 fps=0.4 q=23.8 size=    4608KiB time=00:00:04.73 bitrate=7975.2kbits/s speed=0.0128x elapsed=0:06:09.90    \nframe=  145 fps=0.4 q=25.8 size=    4608KiB time=00:00:04.76 bitrate=7919.4kbits/s speed=0.0129x elapsed=0:06:10.42    \nframe=  145 fps=0.4 q=25.8 size=    4608KiB time=00:00:04.76 bitrate=7919.4kbits/s speed=0.0128x elapsed=0:06:10.94    \nframe=  145 fps=0.4 q=25.8 size=    4608KiB time=00:00:04.76 bitrate=7919.4kbits/s speed=0.0128x elapsed=0:06:11.47    \nframe=  145 fps=0.4 q=25.8 size=    4608KiB time=00:00:04.76 bitrate=7919.4kbits/s speed=0.0128x elapsed=0:06:12.00    \nframe=  146 fps=0.4 q=25.0 size=    4608KiB time=00:00:04.80 bitrate=7864.4kbits/s speed=0.0129x elapsed=0:06:12.56    \nframe=  146 fps=0.4 q=25.0 size=    4608KiB time=00:00:04.80 bitrate=7864.4kbits/s speed=0.0129x elapsed=0:06:13.10    \nframe=  147 fps=0.4 q=23.0 size=    4608KiB time=00:00:04.83 bitrate=7810.2kbits/s speed=0.0129x elapsed=0:06:13.60    \nframe=  147 fps=0.4 q=23.0 size=    4608KiB time=00:00:04.83 bitrate=7810.2kbits/s speed=0.0129x elapsed=0:06:14.12    \nframe=  147 fps=0.4 q=23.0 size=    4608KiB time=00:00:04.83 bitrate=7810.2kbits/s speed=0.0129x elapsed=0:06:14.65    \nframe=  147 fps=0.4 q=23.0 size=    4608KiB time=00:00:04.83 bitrate=7810.2kbits/s speed=0.0129x elapsed=0:06:15.18    \nframe=  148 fps=0.4 q=22.9 size=    4608KiB time=00:00:04.86 bitrate=7756.7kbits/s speed=0.013x elapsed=0:06:15.71    \nframe=  148 fps=0.4 q=22.9 size=    4608KiB time=00:00:04.86 bitrate=7756.7kbits/s speed=0.0129x elapsed=0:06:16.24    \nframe=  148 fps=0.4 q=22.9 size=    4608KiB time=00:00:04.86 bitrate=7756.7kbits/s speed=0.0129x elapsed=0:06:16.77    \n[mp4 @ 0000028329ecaa80] Starting second pass: moving the moov atom to the beginning of the file\n[out#0/mp4 @ 0000028329eca980] video:4791KiB audio:0KiB subtitle:0KiB other streams:0KiB global headers:2KiB muxing overhead: 0.108687%\nframe=  150 fps=0.4 q=24.9 Lsize=    4796KiB time=00:00:04.93 bitrate=7964.0kbits/s speed=0.0131x elapsed=0:06:17.15    \nx265 [info]: frame I:      1, Avg QP:23.18  kb/s: 19642.56\nx265 [info]: frame P:     36, Avg QP:22.15  kb/s: 17794.37\nx265 [info]: frame B:    113, Avg QP:26.22  kb/s: 4575.32 \nx265 [info]: Weighted P-Frames: Y:2.8% UV:2.8%\n\nencoded 150 frames in 376.85s (0.40 fps), 7848.34 kb/s, Avg QP:25.22\n",
  "seconds": 377.5206983089447,
  "probe_out": {}
}